<svg width="294" height="408" viewBox="0 0 294 408" fill="none" xmlns="http://www.w3.org/2000/svg">
<path d="M32.6352 0.949219C57.376 0.949219 82.1168 0.949219 107.607 0.949219C107.607 1.29284 107.607 1.63646 107.607 1.9905C83.2101 1.9905 58.8129 1.9905 33.6764 1.9905C33.6764 10.2374 33.6764 18.4844 33.6764 26.9812C52.9193 26.9812 72.1622 26.9812 91.9881 26.9812C91.9881 27.3249 91.9881 27.6685 91.9881 28.0225C90.27 28.3661 88.5519 28.7098 86.7817 29.0638C100.183 29.5792 100.183 29.5792 113.855 30.1051C110.159 33.8012 109.304 33.6437 104.276 33.7618C103.018 33.7987 101.759 33.8356 100.463 33.8736C98.4906 33.9088 98.4906 33.9088 96.4787 33.9448C95.1518 33.9804 93.825 34.0159 92.4579 34.0526C89.1776 34.1386 85.8975 34.2105 82.6166 34.2702C83.9911 35.3011 85.3656 36.3319 86.7817 37.394C87.3186 36.8786 87.8556 36.3632 88.4087 35.8321C91.8843 33.6933 94.2206 33.84 98.2358 34.2702C100.774 35.702 100.774 35.702 102.401 37.394C102.401 38.0813 102.401 38.7685 102.401 39.4766C103.432 38.4457 103.432 38.4457 104.483 37.394C108.791 34.5224 110.822 34.6618 115.938 35.3115C118.541 36.9385 118.541 36.9385 120.103 39.4766C120.688 43.056 120.688 43.056 120.103 46.7656C117.499 49.8243 117.499 49.8243 114.896 51.972C115.755 52.7022 116.614 53.4324 117.499 54.1847C120.103 57.1784 120.103 57.1784 120.754 60.3022C119.87 64.5447 118.356 66.0751 114.896 68.6324C111.772 69.2182 111.772 69.2182 108.649 68.6324C105.655 66.5499 105.655 66.5499 103.442 64.4673C102.068 65.8418 100.693 67.2163 99.2771 68.6324C100.652 70.3506 102.026 72.0687 103.442 73.8388C103.958 73.1516 104.473 72.4644 105.004 71.7563C108.845 68.6839 111.09 69.1352 115.938 69.6737C118.789 71.3297 119.009 72.6254 119.973 75.7912C120.128 79.6714 119.323 81.2128 116.979 84.2516C114.008 85.7372 111.945 85.6161 108.649 85.2929C105.655 83.2104 105.655 83.2104 103.442 81.1278C102.068 82.8459 100.693 84.564 99.2771 86.3342C100.652 88.0523 102.026 89.7704 103.442 91.5406C104.001 90.8748 104.559 90.2091 105.134 89.5231C108.135 86.9172 109.916 86.4984 113.855 86.3342C116.198 86.8549 116.198 86.8549 118.02 88.4168C119.517 91.866 119.517 91.866 120.103 95.7057C118.942 98.2491 117.902 99.9891 115.938 101.953C108.382 102.573 108.382 102.573 105.004 99.8709C104.489 99.1836 103.973 98.4964 103.442 97.7883C102.01 99.1312 100.623 100.524 99.2771 101.953C99.2771 102.641 99.2771 103.328 99.2771 104.036C99.771 104.444 100.265 104.852 100.774 105.272C103.327 108.234 103.442 110.601 103.442 114.449C101.36 117.508 101.36 117.508 98.2358 119.655C93.611 120.213 91.7283 120.176 87.823 117.573C87.823 116.885 87.823 116.198 87.823 115.49C86.1049 117.208 84.3868 118.926 82.6166 120.696C84.3347 122.071 86.0528 123.445 87.823 124.862C88.3384 123.315 88.3384 123.315 88.8643 121.738C92.0474 120.146 94.7265 120.454 98.2358 120.696C100.709 121.868 100.709 121.868 102.401 123.82C103.623 127.569 103.783 129.318 102.141 132.932C100.318 135.274 100.318 135.274 97.1945 137.357C97.8388 137.55 98.4831 137.744 99.1469 137.943C101.36 139.44 101.36 139.44 102.791 142.889C103.476 146.928 103.516 148.504 101.36 151.935C98.5901 154.192 97.1025 154.013 93.485 153.822C90.0516 153.011 88.8256 152.618 86.7817 149.852C85.4072 151.227 84.0328 152.601 82.6166 154.017C83.9911 155.736 85.3656 157.454 86.7817 159.224C87.5871 158.193 87.5871 158.193 88.4087 157.141C90.9469 155.059 90.9469 155.059 94.5913 154.538C98.2358 155.059 98.2358 155.059 100.774 156.686C103.03 160.205 102.987 162.41 102.401 166.513C100.774 169.051 100.774 169.051 98.2358 170.678C94.5913 171.199 94.5913 171.199 90.9469 170.678C88.4087 168.595 88.4087 168.595 86.7817 166.513C85.4072 168.231 84.0328 169.949 82.6166 171.719C84.6783 173.781 84.6783 173.781 86.7817 175.884C87.4905 175.176 88.1992 174.467 88.9294 173.737C91.9881 171.719 91.9881 171.719 95.7628 171.784C100.884 173.207 100.884 173.207 102.401 175.884C102.821 179.736 102.881 182.237 101.099 185.711C99.2771 187.338 99.2771 187.338 95.112 187.338C95.112 188.026 95.112 188.713 95.112 189.421C96.3361 189.614 96.3361 189.614 97.585 189.811C100.318 190.462 100.318 190.462 102.401 192.545C102.755 195.678 102.973 197.852 102.401 200.875C100.253 203.543 100.253 203.543 97.1945 205.04C93.3362 204.974 90.929 204.824 87.8881 202.372C87.523 201.878 87.1579 201.384 86.7817 200.875C85.4072 202.593 84.0328 204.311 82.6166 206.081C84.6783 208.143 84.6783 208.143 86.7817 210.247C87.5871 209.216 87.5871 209.216 88.4087 208.164C90.9469 206.081 90.9469 206.081 94.5913 205.561C98.2358 206.081 98.2358 206.081 100.774 207.708C103.03 211.228 102.987 213.433 102.401 217.536C100.774 220.074 100.774 220.074 98.2358 221.701C94.5913 222.221 94.5913 222.221 90.9469 221.701C88.4087 219.618 88.4087 219.618 86.7817 217.536C84.2046 220.113 84.2046 220.113 81.5753 222.742C83.2934 224.46 85.0116 226.178 86.7817 227.948C87.3616 226.95 87.3616 226.95 87.9532 225.931C89.9056 223.783 89.9056 223.783 92.8993 222.807C96.7383 222.73 98.3174 223.606 101.36 225.866C102.401 226.907 102.401 226.907 102.661 230.942C102.614 233.61 102.582 234.925 101.229 237.255C98.4162 238.849 96.2633 239.273 93.0294 239.402C88.2757 237.184 88.2757 237.184 86.7817 234.196C86.073 235.227 86.073 235.227 85.35 236.279C84.7916 236.966 84.2332 237.653 83.6579 238.361C82.9706 238.361 82.2834 238.361 81.5753 238.361C81.5753 239.048 81.5753 239.736 81.5753 240.444C82.6062 240.787 83.6371 241.131 84.6992 241.485C85.3864 242.516 86.0737 243.547 86.7817 244.609C87.5871 243.578 87.5871 243.578 88.4087 242.526C90.9469 240.444 90.9469 240.444 94.5913 239.923C98.2358 240.444 98.2358 240.444 100.774 242.071C103.03 245.59 102.987 247.795 102.401 251.898C100.774 254.436 100.774 254.436 98.2358 256.063C94.5913 256.584 94.5913 256.584 90.9469 256.063C88.4087 253.98 88.4087 253.98 86.7817 251.898C85.4072 253.616 84.0328 255.334 82.6166 257.104C84.6783 259.166 84.6783 259.166 86.7817 261.269C87.5871 260.238 87.5871 260.238 88.4087 259.187C90.9469 257.104 90.9469 257.104 94.5913 256.584C98.2358 257.104 98.2358 257.104 100.774 258.666C102.747 261.823 103.051 263.938 102.893 267.615C102.401 269.6 102.401 269.6 99.7977 272.203C98.9387 272.718 98.0796 273.234 97.1945 273.765C98.4509 274.634 98.4509 274.634 99.7327 275.522C102.401 277.93 102.401 277.93 103.442 280.403C103.442 284.081 102.223 286.28 100.318 289.384C99.6311 289.728 98.9439 290.071 98.2358 290.425C98.7727 290.833 99.3096 291.241 99.8628 291.662C101.36 293.549 101.36 293.549 101.36 295.827C99.8823 299.982 98.0389 303.753 95.112 307.086C92.1834 307.606 92.1834 307.606 89.9056 307.086C89.2183 305.711 88.5311 304.337 87.823 302.921C87.1358 302.921 86.4485 302.921 85.7404 302.921C84.1028 305.88 84.1028 305.88 83.6579 309.168C85.1764 310.86 85.1764 310.86 86.7817 312.292C87.4045 311.605 88.0274 310.918 88.6691 310.21C90.9469 308.127 90.9469 308.127 94.0707 308.127C93.8989 308.922 93.7271 309.716 93.5501 310.535C92.1658 320.744 92.9787 327.304 98.2358 336.242C99.513 338.491 99.513 338.491 100.318 340.407C99.9748 341.094 99.6311 341.781 99.2771 342.489C101.339 344.551 101.339 344.551 103.442 346.654C103.838 346.138 104.234 345.621 104.642 345.088C107.328 342.914 108.97 343.275 112.358 343.596C113.369 343.672 114.38 343.749 115.421 343.827C118.02 344.572 118.02 344.572 119.427 346.516C120.387 349.673 119.934 351.831 119.061 354.985C117.955 356.937 117.955 356.937 115.938 358.108C108.623 358.921 108.623 358.921 105.004 356.026C104.489 355.339 103.973 354.651 103.442 353.943C102.411 355.318 101.38 356.692 100.318 358.108C180.211 358.624 180.211 358.624 261.717 359.15C261.717 337.501 261.717 315.853 261.717 293.549C263.779 293.549 265.84 293.549 267.965 293.549C267.965 315.197 267.965 336.845 267.965 359.15C274.15 359.15 280.335 359.15 286.708 359.15C286.708 337.501 286.708 315.853 286.708 293.549C288.082 293.549 289.457 293.549 290.873 293.549C290.87 294.408 290.868 295.266 290.866 296.151C290.845 304.226 290.829 312.302 290.819 320.377C290.813 324.529 290.806 328.681 290.794 332.833C290.783 336.836 290.777 340.84 290.774 344.844C290.772 346.374 290.768 347.905 290.763 349.436C290.755 351.573 290.754 353.71 290.754 355.847C290.752 357.065 290.75 358.284 290.747 359.539C290.561 362.196 290.561 362.196 291.914 363.315C291.914 340.292 291.914 317.269 291.914 293.549C292.601 293.549 293.288 293.549 293.996 293.549C293.996 331.004 293.996 368.459 293.996 407.049C197.095 407.049 100.193 407.049 0.355469 407.049C0.355469 281.626 0.355469 156.204 0.355469 26.9812C11.0078 26.9812 21.6601 26.9812 32.6352 26.9812C32.6352 18.3907 32.6352 9.8001 32.6352 0.949219ZM2.43803 29.0638C2.43803 144.865 2.43803 260.665 2.43803 379.975C3.12527 379.632 3.81252 379.288 4.52059 378.934C4.17697 263.82 3.83334 148.707 3.47931 30.1051C13.1007 30.1051 22.7222 30.1051 32.6352 30.1051C32.6352 29.7614 32.6352 29.4178 32.6352 29.0638C22.6701 29.0638 12.7051 29.0638 2.43803 29.0638ZM7.64443 33.2289C7.64443 146.281 7.64443 259.333 7.64443 375.81C91.4883 375.81 175.332 375.81 261.717 375.81C261.717 372.374 261.717 368.938 261.717 365.397C186.464 365.054 111.21 364.71 33.6764 364.356C33.3328 255.084 32.9892 145.812 32.6352 33.2289C24.3882 33.2289 16.1413 33.2289 7.64443 33.2289ZM33.6764 33.2289C33.6764 34.947 33.6764 36.6651 33.6764 38.4353C34.3637 37.7481 35.0509 37.0608 35.759 36.3528C35.759 35.3219 35.759 34.291 35.759 33.2289C35.0718 33.2289 34.3845 33.2289 33.6764 33.2289ZM48.2544 33.2289C49.6289 34.2598 51.0033 35.2906 52.4195 36.3528C53.4503 35.3219 54.4812 34.291 55.5433 33.2289C53.138 33.2289 50.7326 33.2289 48.2544 33.2289ZM64.9148 33.2289C66.633 34.6034 68.3511 35.9779 70.1212 37.394C71.4957 36.0195 72.8702 34.6451 74.2864 33.2289C71.1938 33.2289 68.1012 33.2289 64.9148 33.2289ZM103.442 46.7656C102.068 48.14 100.693 49.5145 99.2771 50.9307C100.623 53.9341 102.046 56.004 104.483 58.2196C104.763 57.5753 105.042 56.9311 105.33 56.2672C106.566 54.0545 106.566 54.0545 109.69 51.972C107.628 50.2538 105.566 48.5357 103.442 46.7656ZM33.6764 48.8481C33.6764 50.9099 33.6764 52.9716 33.6764 55.0958C34.3637 54.7522 35.0509 54.4086 35.759 54.0545C35.4154 52.3364 35.0718 50.6183 34.7177 48.8481C34.3741 48.8481 34.0305 48.8481 33.6764 48.8481ZM85.7404 48.8481C85.0532 50.2226 84.366 51.5971 83.6579 53.0132C85.7196 54.0441 85.7196 54.0441 87.823 55.0958C88.5103 53.7213 89.1975 52.3468 89.9056 50.9307C88.5311 50.2434 87.1566 49.5562 85.7404 48.8481ZM51.3782 49.8894C51.3782 51.2639 51.3782 52.6384 51.3782 54.0545C52.0654 53.7109 52.7527 53.3673 53.4608 53.0132C53.1171 51.9824 52.7735 50.9515 52.4195 49.8894C52.0759 49.8894 51.7322 49.8894 51.3782 49.8894ZM68.0387 49.8894C68.0387 50.9203 68.0387 51.9511 68.0387 53.0132C69.0696 53.0132 70.1004 53.0132 71.1625 53.0132C70.8189 51.9824 70.4753 50.9515 70.1212 49.8894C69.434 49.8894 68.7468 49.8894 68.0387 49.8894ZM33.6764 65.5086C33.6764 67.5703 33.6764 69.6321 33.6764 71.7563C34.3637 71.4127 35.0509 71.069 35.759 70.715C35.4154 68.9969 35.0718 67.2788 34.7177 65.5086C34.3741 65.5086 34.0305 65.5086 33.6764 65.5086ZM85.7404 65.5086C84.0361 67.5495 84.0361 67.5495 82.6166 69.6737C83.3039 69.6737 83.9911 69.6737 84.6992 69.6737C85.0428 70.7046 85.3864 71.7355 85.7404 72.7976C86.4277 72.7976 87.1149 72.7976 87.823 72.7976C87.823 72.1103 87.823 71.4231 87.823 70.715C89.1975 70.0278 90.572 69.3405 91.9881 68.6324C89.2053 66.1929 89.2053 66.1929 85.7404 65.5086ZM51.3782 66.5499C51.3782 67.9244 51.3782 69.2989 51.3782 70.715C52.4091 70.3714 53.4399 70.0278 54.502 69.6737C53.4712 68.6429 52.4403 67.612 51.3782 66.5499ZM69.08 66.5499C68.0491 68.0962 68.0491 68.0962 66.9974 69.6737C68.5437 70.7046 68.5437 70.7046 70.1212 71.7563C70.8085 70.7254 71.4957 69.6945 72.2038 68.6324C71.1729 67.9452 70.1421 67.258 69.08 66.5499ZM33.6764 82.1691C33.6764 84.5744 33.6764 86.9798 33.6764 89.4581C34.3637 88.7708 35.0509 88.0836 35.759 87.3755C35.4254 84.6652 35.4254 84.6652 34.7177 82.1691C34.3741 82.1691 34.0305 82.1691 33.6764 82.1691ZM85.7404 82.1691C84.0361 84.21 84.0361 84.21 82.6166 86.3342C84.0361 88.4584 84.0361 88.4584 85.7404 90.4993C86.4277 90.4993 87.1149 90.4993 87.823 90.4993C89.2624 88.8059 90.6546 87.0709 91.9881 85.2929C89.2053 82.8533 89.2053 82.8533 85.7404 82.1691ZM69.08 83.2104C68.0491 84.7567 68.0491 84.7567 66.9974 86.3342C68.0283 87.3651 69.0591 88.3959 70.1212 89.4581C71.1521 88.0836 72.183 86.7091 73.2451 85.2929C71.8706 84.6057 70.4961 83.9184 69.08 83.2104ZM51.3782 84.2516C51.3782 85.2825 51.3782 86.3134 51.3782 87.3755C52.4091 87.0319 53.4399 86.6882 54.502 86.3342C54.1584 85.647 53.8148 84.9597 53.4608 84.2516C52.7735 84.2516 52.0863 84.2516 51.3782 84.2516ZM84.0484 100.391C83.5759 100.907 83.1034 101.422 82.6166 101.953C83.8159 104.523 84.749 106.168 86.7817 108.201C88.4998 106.483 90.218 104.765 91.9881 102.995C90.6136 102.307 89.2392 101.62 87.823 100.912C87.823 100.225 87.823 99.5376 87.823 98.8296C85.6117 98.5941 85.6117 98.5941 84.0484 100.391ZM33.6764 99.8709C33.6764 101.933 33.6764 103.994 33.6764 106.119C34.3637 105.775 35.0509 105.431 35.759 105.077C35.4154 103.359 35.0718 101.641 34.7177 99.8709C34.3741 99.8709 34.0305 99.8709 33.6764 99.8709ZM69.08 99.8709C68.3927 101.245 67.7055 102.62 66.9974 104.036C68.0283 105.067 69.0591 106.098 70.1212 107.16C71.1521 105.785 72.183 104.411 73.2451 102.995C71.8706 101.964 70.4961 100.933 69.08 99.8709ZM51.3782 100.912C51.3782 102.287 51.3782 103.661 51.3782 105.077C52.4091 104.734 53.4399 104.39 54.502 104.036C54.1584 103.005 53.8148 101.974 53.4608 100.912C52.7735 100.912 52.0863 100.912 51.3782 100.912ZM33.6764 116.531C33.6764 118.937 33.6764 121.342 33.6764 123.82C34.3637 123.133 35.0509 122.446 35.759 121.738C35.4254 119.027 35.4254 119.027 34.7177 116.531C34.3741 116.531 34.0305 116.531 33.6764 116.531ZM69.08 116.531C67.5337 118.593 67.5337 118.593 65.9561 120.696C67.3306 121.727 68.7051 122.758 70.1212 123.82C71.4957 122.446 72.8702 121.071 74.2864 119.655C72.5683 118.624 70.8501 117.593 69.08 116.531ZM51.3782 118.614C51.3782 119.645 51.3782 120.676 51.3782 121.738C52.7527 121.05 54.1272 120.363 55.5433 119.655C54.1688 119.312 52.7943 118.968 51.3782 118.614ZM85.7404 132.151C84.3011 133.844 82.9088 135.579 81.5753 137.357C83.2934 139.075 85.0116 140.793 86.7817 142.563C89.3217 140.558 91.7808 138.606 94.0707 136.316C93.2331 136.015 92.3955 135.714 91.5326 135.405C88.8643 134.233 88.8643 134.233 87.823 132.151C87.1358 132.151 86.4485 132.151 85.7404 132.151ZM69.08 133.192C67.5337 135.254 67.5337 135.254 65.9561 137.357C67.3306 138.731 68.7051 140.106 70.1212 141.522C71.1521 140.491 72.183 139.46 73.2451 138.398C71.8821 135.147 71.8821 135.147 69.08 133.192ZM33.6764 134.233C33.6764 136.295 33.6764 138.357 33.6764 140.481C34.3637 139.794 35.0509 139.106 35.759 138.398C35.4273 136.203 35.4273 136.203 34.7177 134.233C34.3741 134.233 34.0305 134.233 33.6764 134.233ZM51.3782 135.274C51.3782 136.649 51.3782 138.023 51.3782 139.44C52.4091 139.096 53.4399 138.752 54.502 138.398C54.1584 137.367 53.8148 136.337 53.4608 135.274C52.7735 135.274 52.0863 135.274 51.3782 135.274ZM69.08 149.852C68.0491 151.57 67.0182 153.289 65.9561 155.059C67.3306 156.09 68.7051 157.12 70.1212 158.183C71.4957 156.808 72.8702 155.434 74.2864 154.017C73.6206 153.717 72.9548 153.416 72.2689 153.106C70.1212 151.935 70.1212 151.935 69.08 149.852ZM33.6764 150.894C33.6764 152.955 33.6764 155.017 33.6764 157.141C34.3637 156.798 35.0509 156.454 35.759 156.1C35.4154 154.382 35.0718 152.664 34.7177 150.894C34.3741 150.894 34.0305 150.894 33.6764 150.894ZM51.3782 151.935C51.3782 153.309 51.3782 154.684 51.3782 156.1C52.7527 155.413 54.1272 154.726 55.5433 154.017C54.1688 153.33 52.7943 152.643 51.3782 151.935ZM69.08 166.513C68.0491 168.231 67.0182 169.949 65.9561 171.719C67.3306 173.094 68.7051 174.468 70.1212 175.884C71.4957 174.166 72.8702 172.448 74.2864 170.678C72.5683 169.303 70.8501 167.929 69.08 166.513ZM33.6764 167.554C33.6764 169.959 33.6764 172.365 33.6764 174.843C34.3637 174.156 35.0509 173.469 35.759 172.76C35.4254 170.05 35.4254 170.05 34.7177 167.554C34.3741 167.554 34.0305 167.554 33.6764 167.554ZM52.4195 168.595C51.3886 170.142 51.3886 170.142 50.3369 171.719C51.8832 172.75 51.8832 172.75 53.4608 173.802C54.148 172.771 54.8353 171.74 55.5433 170.678C54.8561 170.678 54.1688 170.678 53.4608 170.678C53.1171 169.991 52.7735 169.303 52.4195 168.595ZM85.7404 182.132C85.4398 182.798 85.1391 183.464 84.8293 184.149C83.6579 186.297 83.6579 186.297 81.5753 187.338C81.3408 189.518 81.3408 189.518 83.0071 190.983C83.5655 191.498 84.1239 192.014 84.6992 192.545C85.3864 193.232 86.0737 193.919 86.7817 194.627C87.716 193.629 87.716 193.629 88.6691 192.61C90.9469 190.462 90.9469 190.462 94.0707 189.421C94.0707 188.734 94.0707 188.046 94.0707 187.338C92.8788 186.92 92.8788 186.92 91.6627 186.492C88.9957 185.314 87.618 184.306 85.7404 182.132ZM69.08 183.173C67.5337 185.235 67.5337 185.235 65.9561 187.338C66.6434 188.713 67.3306 190.087 68.0387 191.504C69.0696 191.504 70.1004 191.504 71.1625 191.504C72.9382 189.483 72.9382 189.483 74.2864 187.338C72.5683 185.964 70.8501 184.589 69.08 183.173ZM33.6764 185.256C33.6764 187.318 33.6764 189.379 33.6764 191.504C34.3637 191.16 35.0509 190.816 35.759 190.462C35.4154 188.744 35.0718 187.026 34.7177 185.256C34.3741 185.256 34.0305 185.256 33.6764 185.256ZM51.3782 186.297C51.3782 187.672 51.3782 189.046 51.3782 190.462C52.4091 190.119 53.4399 189.775 54.502 189.421C54.1584 188.39 53.8148 187.359 53.4608 186.297C52.7735 186.297 52.0863 186.297 51.3782 186.297ZM69.08 200.875C67.7055 202.593 66.331 204.311 64.9148 206.081C67.492 208.143 67.492 208.143 70.1212 210.247C70.5937 209.774 71.0662 209.302 71.553 208.815C72.8112 207.557 74.0694 206.298 75.3277 205.04C74.6834 204.74 74.0391 204.439 73.3752 204.129C71.1625 202.958 71.1625 202.958 69.08 200.875ZM33.6764 201.916C33.6764 204.322 33.6764 206.727 33.6764 209.205C34.3637 208.518 35.0509 207.831 35.759 207.123C35.4254 204.412 35.4254 204.412 34.7177 201.916C34.3741 201.916 34.0305 201.916 33.6764 201.916ZM51.3782 202.958C51.3782 204.332 51.3782 205.707 51.3782 207.123C52.4091 207.123 53.4399 207.123 54.502 207.123C54.502 206.092 54.502 205.061 54.502 203.999C53.4712 203.655 52.4403 203.312 51.3782 202.958ZM69.08 217.536C68.0491 219.254 67.0182 220.972 65.9561 222.742C67.3306 224.116 68.7051 225.491 70.1212 226.907C71.4957 225.189 72.8702 223.471 74.2864 221.701C72.5683 220.326 70.8501 218.952 69.08 217.536ZM33.6764 218.577C33.6764 220.982 33.6764 223.388 33.6764 225.866C34.3637 225.522 35.0509 225.179 35.759 224.825C35.4154 222.763 35.0718 220.701 34.7177 218.577C34.3741 218.577 34.0305 218.577 33.6764 218.577ZM52.4195 219.618C51.7322 220.993 51.045 222.367 50.3369 223.783C51.7114 223.783 53.0859 223.783 54.502 223.783C54.502 222.752 54.502 221.721 54.502 220.659C53.8148 220.316 53.1276 219.972 52.4195 219.618ZM69.08 235.237C68.7363 236.268 68.3927 237.299 68.0387 238.361C67.3514 238.361 66.6642 238.361 65.9561 238.361C66.6434 239.736 67.3306 241.11 68.0387 242.526C71.1652 242.872 71.1652 242.872 72.9197 240.964C73.3707 240.449 73.8217 239.933 74.2864 239.402C72.5683 238.028 70.8501 236.653 69.08 235.237ZM33.6764 236.279C33.6764 238.34 33.6764 240.402 33.6764 242.526C34.3637 242.183 35.0509 241.839 35.759 241.485C35.4154 239.767 35.0718 238.049 34.7177 236.279C34.3741 236.279 34.0305 236.279 33.6764 236.279ZM51.3782 237.32C51.3782 238.694 51.3782 240.069 51.3782 241.485C52.7527 240.798 54.1272 240.111 55.5433 239.402C54.1688 238.715 52.7943 238.028 51.3782 237.32ZM69.08 251.898C68.0491 253.616 67.0182 255.334 65.9561 257.104C67.3306 258.479 68.7051 259.853 70.1212 261.269C71.4957 259.551 72.8702 257.833 74.2864 256.063C72.5683 254.688 70.8501 253.314 69.08 251.898ZM33.6764 252.939C33.6764 255.344 33.6764 257.75 33.6764 260.228C34.3637 259.541 35.0509 258.854 35.759 258.145C35.4254 255.435 35.4254 255.435 34.7177 252.939C34.3741 252.939 34.0305 252.939 33.6764 252.939ZM52.4195 253.98C51.3886 255.527 51.3886 255.527 50.3369 257.104C51.8832 258.135 51.8832 258.135 53.4608 259.187C54.148 258.156 54.8353 257.125 55.5433 256.063C54.5125 255.376 53.4816 254.688 52.4195 253.98ZM85.7404 267.517C85.4398 268.183 85.1391 268.849 84.8293 269.534C83.6579 271.682 83.6579 271.682 81.5753 272.723C81.5753 273.411 81.5753 274.098 81.5753 274.806C83.2687 276.245 85.0037 277.638 86.7817 278.971C87.2113 278.499 87.6408 278.026 88.0833 277.539C89.9723 275.785 91.7308 274.814 94.0707 273.765C93.0398 273.077 92.009 272.39 90.9469 271.682C89.2035 270.304 87.4668 268.917 85.7404 267.517ZM69.08 269.6C68.7363 270.63 68.3927 271.661 68.0387 272.723C67.0078 273.239 67.0078 273.239 65.9561 273.765C67.3306 275.139 68.7051 276.514 70.1212 277.93C71.1521 276.899 72.183 275.868 73.2451 274.806C71.8821 271.555 71.8821 271.555 69.08 269.6ZM33.6764 270.641C33.6764 272.703 33.6764 274.764 33.6764 276.889C34.3637 276.545 35.0509 276.201 35.759 275.847C35.4154 274.129 35.0718 272.411 34.7177 270.641C34.3741 270.641 34.0305 270.641 33.6764 270.641ZM51.3782 271.682C51.3782 273.057 51.3782 274.431 51.3782 275.847C52.4091 275.504 53.4399 275.16 54.502 274.806C54.1584 273.775 53.8148 272.744 53.4608 271.682C52.7735 271.682 52.0863 271.682 51.3782 271.682ZM85.7404 285.219C83.6787 288.311 83.6787 288.311 81.5753 291.466C82.9182 292.899 84.3107 294.286 85.7404 295.632C87.9174 295.871 87.9174 295.871 89.3199 294.2C89.8568 293.641 90.3937 293.083 90.9469 292.508C91.9777 291.82 93.0086 291.133 94.0707 290.425C92.8788 289.716 92.8788 289.716 91.6627 288.993C89.6595 287.782 87.6883 286.517 85.7404 285.219ZM69.08 286.26C68.0491 287.978 67.0182 289.696 65.9561 291.466C66.6434 291.466 67.3306 291.466 68.0387 291.466C68.3823 292.497 68.7259 293.528 69.08 294.59C70.7981 293.216 72.5162 291.841 74.2864 290.425C72.5683 289.051 70.8501 287.676 69.08 286.26ZM33.6764 287.301C33.6764 289.363 33.6764 291.425 33.6764 293.549C34.3637 293.205 35.0509 292.862 35.759 292.508C35.4154 290.79 35.0718 289.072 34.7177 287.301C34.3741 287.301 34.0305 287.301 33.6764 287.301ZM51.3782 288.343C51.0346 289.373 50.691 290.404 50.3369 291.466C51.7114 291.466 53.0859 291.466 54.502 291.466C54.1584 290.436 53.8148 289.405 53.4608 288.343C52.7735 288.343 52.0863 288.343 51.3782 288.343ZM264.841 301.879C264.841 305.659 264.841 309.439 264.841 313.333C265.184 313.333 265.528 313.333 265.882 313.333C265.882 309.553 265.882 305.774 265.882 301.879C265.538 301.879 265.195 301.879 264.841 301.879ZM69.08 303.962C68.7363 304.993 68.3927 306.024 68.0387 307.086C67.0078 307.601 67.0078 307.601 65.9561 308.127C67.3306 309.158 68.7051 310.189 70.1212 311.251C71.1521 309.876 72.183 308.502 73.2451 307.086C71.8706 306.055 70.4961 305.024 69.08 303.962ZM33.6764 305.003C33.6764 307.065 33.6764 309.127 33.6764 311.251C34.3637 310.564 35.0509 309.876 35.759 309.168C35.4273 306.973 35.4273 306.973 34.7177 305.003C34.3741 305.003 34.0305 305.003 33.6764 305.003ZM51.3782 306.044C51.0346 306.732 50.691 307.419 50.3369 308.127C51.0242 308.814 51.7114 309.501 52.4195 310.21C53.1067 309.179 53.794 308.148 54.502 307.086C53.4712 306.742 52.4403 306.398 51.3782 306.044ZM85.7404 319.581C84.672 320.949 83.6295 322.337 82.6166 323.746C83.4405 325.829 83.4405 325.829 84.6992 327.911C85.73 328.255 86.7609 328.599 87.823 328.953C87.823 328.265 87.823 327.578 87.823 326.87C88.8539 326.526 89.8847 326.183 90.9469 325.829C90.6032 324.798 90.2596 323.767 89.9056 322.705C89.2183 322.705 88.5311 322.705 87.823 322.705C87.4794 321.674 87.1358 320.643 86.7817 319.581C86.4381 319.581 86.0945 319.581 85.7404 319.581ZM264.841 319.581C264.841 323.361 264.841 327.141 264.841 331.035C265.184 331.035 265.528 331.035 265.882 331.035C265.882 327.255 265.882 323.475 265.882 319.581C265.538 319.581 265.195 319.581 264.841 319.581ZM33.6764 321.664C33.6764 323.725 33.6764 325.787 33.6764 327.911C34.3637 327.568 35.0509 327.224 35.759 326.87C35.4154 325.152 35.0718 323.434 34.7177 321.664C34.3741 321.664 34.0305 321.664 33.6764 321.664ZM69.08 321.664C68.3927 323.038 67.7055 324.413 66.9974 325.829C68.5437 326.86 68.5437 326.86 70.1212 327.911C70.8085 326.537 71.4957 325.162 72.2038 323.746C71.1729 323.059 70.1421 322.372 69.08 321.664ZM51.3782 322.705C51.3782 324.079 51.3782 325.454 51.3782 326.87C52.4091 326.526 53.4399 326.183 54.502 325.829C54.502 325.141 54.502 324.454 54.502 323.746C53.4712 323.403 52.4403 323.059 51.3782 322.705ZM264.841 336.242C264.841 340.021 264.841 343.801 264.841 347.696C265.184 347.696 265.528 347.696 265.882 347.696C265.882 343.916 265.882 340.136 265.882 336.242C265.538 336.242 265.195 336.242 264.841 336.242ZM85.7404 337.283C84.366 339.001 82.9915 340.719 81.5753 342.489C84.1525 344.551 84.1525 344.551 86.7817 346.654C88.4998 344.936 90.218 343.218 91.9881 341.448C89.9264 340.073 87.8647 338.699 85.7404 337.283ZM33.6764 338.324C33.6764 340.729 33.6764 343.135 33.6764 345.613C34.3637 344.926 35.0509 344.239 35.759 343.53C35.4254 340.82 35.4254 340.82 34.7177 338.324C34.3741 338.324 34.0305 338.324 33.6764 338.324ZM69.08 338.324C68.3927 339.699 67.7055 341.073 66.9974 342.489C68.5437 343.52 68.5437 343.52 70.1212 344.572C71.1521 343.541 72.183 342.51 73.2451 341.448C71.8706 340.417 70.4961 339.386 69.08 338.324ZM51.3782 340.407C51.3782 341.438 51.3782 342.468 51.3782 343.53C52.4091 343.187 53.4399 342.843 54.502 342.489C54.1584 341.802 53.8148 341.115 53.4608 340.407C52.7735 340.407 52.0863 340.407 51.3782 340.407ZM264.841 353.943C264.841 355.661 264.841 357.379 264.841 359.15C265.184 359.15 265.528 359.15 265.882 359.15C265.882 357.432 265.882 355.713 265.882 353.943C265.538 353.943 265.195 353.943 264.841 353.943ZM85.7404 354.985C85.3968 356.015 85.0532 357.046 84.6992 358.108C83.6683 358.624 83.6683 358.624 82.6166 359.15C85.3656 359.15 88.1146 359.15 90.9469 359.15C89.2287 357.775 87.5106 356.401 85.7404 354.985ZM33.6764 356.026C33.6764 358.431 33.6764 360.837 33.6764 363.315C108.93 363.315 184.183 363.315 261.717 363.315C261.717 362.971 261.717 362.628 261.717 362.273C187.151 362.273 112.585 362.273 35.759 362.273C35.759 360.555 35.759 358.837 35.759 357.067C35.0718 356.723 34.3845 356.38 33.6764 356.026ZM69.08 356.026C68.0491 357.572 68.0491 357.572 66.9974 359.15C68.7155 359.15 70.4336 359.15 72.2038 359.15C71.1729 358.119 70.1421 357.088 69.08 356.026ZM51.3782 357.067C51.0346 357.754 50.691 358.442 50.3369 359.15C51.3678 358.806 52.3987 358.462 53.4608 358.108C52.7735 357.765 52.0863 357.421 51.3782 357.067ZM267.965 362.273C267.965 362.617 267.965 362.961 267.965 363.315C274.15 363.315 280.335 363.315 286.708 363.315C286.708 362.971 286.708 362.628 286.708 362.273C280.522 362.273 274.337 362.273 267.965 362.273ZM267.965 365.397C267.965 370.552 267.965 375.706 267.965 381.017C182.059 381.017 96.1533 381.017 7.64443 381.017C7.64443 387.545 7.64443 394.074 7.64443 400.801C99.7353 400.801 191.826 400.801 286.708 400.801C286.708 389.118 286.708 377.435 286.708 365.397C280.522 365.397 274.337 365.397 267.965 365.397ZM264.841 365.397C264.841 369.864 264.841 374.332 264.841 378.934C179.966 378.934 95.0911 378.934 7.64443 378.934C7.64443 379.278 7.64443 379.621 7.64443 379.975C92.8628 379.975 178.081 379.975 265.882 379.975C265.882 375.165 265.882 370.354 265.882 365.397C265.538 365.397 265.195 365.397 264.841 365.397ZM289.831 365.397C289.831 378.111 289.831 390.825 289.831 403.925C195.679 403.925 101.526 403.925 4.52059 403.925C4.52059 396.365 4.52059 388.805 4.52059 381.017C3.83334 381.017 3.1461 381.017 2.43803 381.017C2.43803 389.263 2.43803 397.51 2.43803 406.007C97.9651 406.007 193.492 406.007 291.914 406.007C291.914 392.606 291.914 379.205 291.914 365.397C291.227 365.397 290.539 365.397 289.831 365.397Z" fill="#DECD8A"/>
<path d="M0.355469 26.9824C3.10445 26.9824 5.85343 26.9824 8.68571 26.9824C8.34209 27.6697 7.99847 28.3569 7.64443 29.065C5.92632 29.065 4.20821 29.065 2.43803 29.065C2.43803 144.866 2.43803 260.667 2.43803 379.976C3.74517 378.901 3.74517 378.901 3.60863 376.569C3.60804 374.98 3.60804 374.98 3.60744 373.359C3.60951 372.142 3.61158 370.925 3.61372 369.671C3.60917 367.639 3.60917 367.639 3.60453 365.567C3.60498 364.127 3.60589 362.688 3.60722 361.248C3.60956 357.273 3.60537 353.298 3.60017 349.323C3.59569 345.044 3.59719 340.764 3.59798 336.485C3.59853 329.064 3.59525 321.644 3.5894 314.223C3.58096 303.494 3.57823 292.765 3.57692 282.036C3.57464 264.631 3.5677 247.226 3.55786 229.821C3.54831 212.909 3.54094 195.997 3.53651 179.085C3.5361 177.522 3.5361 177.522 3.53568 175.928C3.53432 170.703 3.53301 165.477 3.53171 160.252C3.52091 116.87 3.50228 73.488 3.47931 30.1063C14.4752 30.1063 25.4711 30.1063 36.8003 30.1063C36.8003 31.1371 36.8003 32.168 36.8003 33.2301C27.1788 33.2301 17.5574 33.2301 7.64443 33.2301C7.64443 146.282 7.64443 259.334 7.64443 375.811C91.4883 375.811 175.332 375.811 261.717 375.811C261.717 372.375 261.717 368.939 261.717 365.399C260.543 365.4 259.368 365.4 258.158 365.401C229.63 365.425 201.101 365.442 172.572 365.453C158.776 365.458 144.98 365.465 131.184 365.477C119.164 365.487 107.145 365.494 95.1248 365.497C88.7561 365.498 82.3874 365.501 76.0187 365.509C70.0318 365.516 64.0449 365.518 58.058 365.516C55.8538 365.517 53.6495 365.519 51.4453 365.523C48.4498 365.528 45.4544 365.527 42.459 365.524C41.1326 365.528 41.1326 365.528 39.7794 365.533C33.7953 365.517 33.7953 365.517 32.6352 364.357C32.5334 361.776 32.4998 359.224 32.5099 356.642C32.509 355.825 32.5082 355.008 32.5072 354.165C32.5055 351.406 32.5113 348.646 32.5169 345.886C32.5172 343.917 32.5171 341.947 32.5165 339.977C32.5162 334.612 32.5223 329.246 32.5296 323.881C32.5361 318.28 32.5367 312.68 32.5379 307.079C32.5412 296.466 32.5497 285.852 32.5602 275.239C32.5718 263.159 32.5775 251.079 32.5828 239C32.5937 214.144 32.612 189.288 32.6352 164.431C32.9788 164.431 33.3224 164.431 33.6764 164.431C33.6764 230.063 33.6764 295.695 33.6764 363.316C34.3637 362.972 35.0509 362.629 35.759 362.275C35.759 360.9 35.759 359.526 35.759 358.11C36.7899 358.453 37.8207 358.797 38.8828 359.151C41.8366 359.249 44.7644 359.287 47.7181 359.276C48.6308 359.277 49.5434 359.278 50.4837 359.279C53.5534 359.28 56.6232 359.275 59.6929 359.269C61.8888 359.269 64.0846 359.269 66.2805 359.27C72.2524 359.27 78.2243 359.264 84.1962 359.256C90.4333 359.25 96.6704 359.249 102.907 359.248C114.723 359.245 126.539 359.236 138.354 359.226C151.804 359.214 165.253 359.208 178.703 359.203C206.374 359.192 234.046 359.173 261.717 359.151C261.717 337.503 261.717 315.854 261.717 293.55C263.779 293.55 265.84 293.55 267.965 293.55C267.965 315.198 267.965 336.847 267.965 359.151C274.15 359.151 280.335 359.151 286.708 359.151C286.708 337.503 286.708 315.854 286.708 293.55C288.082 293.55 289.457 293.55 290.873 293.55C290.87 294.409 290.868 295.268 290.866 296.152C290.845 304.227 290.829 312.303 290.819 320.378C290.813 324.53 290.806 328.682 290.794 332.834C290.783 336.838 290.777 340.841 290.774 344.845C290.772 346.376 290.768 347.906 290.763 349.437C290.755 351.574 290.754 353.711 290.754 355.848C290.752 357.066 290.75 358.285 290.747 359.54C290.561 362.197 290.561 362.197 291.914 363.316C291.914 340.293 291.914 317.271 291.914 293.55C292.601 293.55 293.288 293.55 293.996 293.55C293.996 331.005 293.996 368.46 293.996 407.05C197.095 407.05 100.193 407.05 0.355469 407.05C0.355469 281.628 0.355469 156.205 0.355469 26.9824ZM264.841 301.88C264.841 305.66 264.841 309.44 264.841 313.335C265.184 313.335 265.528 313.335 265.882 313.335C265.882 309.555 265.882 305.775 265.882 301.88C265.538 301.88 265.195 301.88 264.841 301.88ZM264.841 319.582C264.841 323.362 264.841 327.142 264.841 331.036C265.184 331.036 265.528 331.036 265.882 331.036C265.882 327.256 265.882 323.477 265.882 319.582C265.538 319.582 265.195 319.582 264.841 319.582ZM264.841 336.243C264.841 340.023 264.841 343.802 264.841 347.697C265.184 347.697 265.528 347.697 265.882 347.697C265.882 343.917 265.882 340.137 265.882 336.243C265.538 336.243 265.195 336.243 264.841 336.243ZM264.841 353.944C264.841 355.663 264.841 357.381 264.841 359.151C265.184 359.151 265.528 359.151 265.882 359.151C265.882 357.433 265.882 355.715 265.882 353.944C265.538 353.944 265.195 353.944 264.841 353.944ZM267.965 362.275C267.965 362.618 267.965 362.962 267.965 363.316C274.15 363.316 280.335 363.316 286.708 363.316C286.708 362.972 286.708 362.629 286.708 362.275C280.522 362.275 274.337 362.275 267.965 362.275ZM267.965 365.399C267.965 370.553 267.965 375.707 267.965 381.018C182.059 381.018 96.1533 381.018 7.64443 381.018C7.64443 387.547 7.64443 394.075 7.64443 400.802C99.7353 400.802 191.826 400.802 286.708 400.802C286.708 389.119 286.708 377.436 286.708 365.399C280.522 365.399 274.337 365.399 267.965 365.399ZM264.841 365.399C264.841 369.866 264.841 374.333 264.841 378.935C179.966 378.935 95.0911 378.935 7.64443 378.935C7.64443 379.279 7.64443 379.622 7.64443 379.976C92.8628 379.976 178.081 379.976 265.882 379.976C265.882 375.166 265.882 370.355 265.882 365.399C265.538 365.399 265.195 365.399 264.841 365.399ZM289.831 365.399C289.831 378.113 289.831 390.827 289.831 403.926C195.679 403.926 101.526 403.926 4.52059 403.926C4.52059 396.366 4.52059 388.807 4.52059 381.018C3.83334 381.018 3.1461 381.018 2.43803 381.018C2.43803 389.265 2.43803 397.512 2.43803 406.008C97.9651 406.008 193.492 406.008 291.914 406.008C291.914 392.607 291.914 379.206 291.914 365.399C291.227 365.399 290.539 365.399 289.831 365.399Z" fill="#C5AD57"/>
<path d="M107.611 0.949219C169.119 0.949219 230.628 0.949219 294 0.949219C294 22.9411 294 44.9329 294 67.5912C293.313 67.5912 292.626 67.5912 291.918 67.5912C291.23 66.9039 290.543 66.2167 289.835 65.5086C288.804 64.8214 287.773 64.1341 286.711 63.426C286.357 60.4176 286.357 60.4176 286.406 56.617C286.416 55.2613 286.426 53.9056 286.437 52.5089C286.463 51.0717 286.489 49.6345 286.516 48.1973C286.532 46.752 286.546 45.3067 286.559 43.8614C286.596 40.317 286.652 36.7729 286.711 33.2289C280.526 33.2289 274.341 33.2289 267.968 33.2289C268.312 37.0088 268.655 40.7886 269.01 44.683C267.979 45.3702 266.948 46.0575 265.886 46.7656C265.122 49.9577 265.122 49.9577 264.844 53.0132C263.814 53.0132 262.783 53.0132 261.721 53.0132C261.721 46.4844 261.721 39.9556 261.721 33.2289C211.895 33.2289 162.07 33.2289 110.735 33.2289C111.766 32.198 112.797 31.1672 113.859 30.1051C100.457 29.5896 100.457 29.5896 86.7854 29.0638C86.7854 28.7202 86.7854 28.3765 86.7854 28.0225C91.2197 26.9395 95.513 26.8376 100.05 26.856C100.854 26.8551 101.657 26.8542 102.486 26.8533C105.175 26.8516 107.864 26.8573 110.553 26.863C112.483 26.8633 114.412 26.8631 116.341 26.8626C121.577 26.8623 126.813 26.8684 132.05 26.8756C137.522 26.8822 142.995 26.8828 148.468 26.884C158.83 26.8872 169.193 26.8958 179.555 26.9062C191.353 26.9179 203.151 26.9236 214.948 26.9288C239.216 26.9397 263.484 26.9582 287.753 26.9812C287.753 20.4524 287.753 13.9236 287.753 7.1969C205.627 7.1969 123.501 7.1969 38.8865 7.1969C38.8865 13.7257 38.8865 20.2546 38.8865 26.9812C37.8557 26.9812 36.8248 26.9812 35.7627 26.9812C35.7627 19.4215 35.7627 11.8618 35.7627 4.07306C119.95 4.07306 204.138 4.07306 290.876 4.07306C291.22 3.38581 291.564 2.69857 291.918 1.9905C231.096 1.9905 170.275 1.9905 107.611 1.9905C107.611 1.64688 107.611 1.30325 107.611 0.949219ZM267.968 28.0225C267.968 28.7098 267.968 29.397 267.968 30.1051C274.497 30.1051 281.026 30.1051 287.753 30.1051C287.753 29.4178 287.753 28.7306 287.753 28.0225C281.224 28.0225 274.695 28.0225 267.968 28.0225ZM264.844 33.2289C264.844 35.6343 264.844 38.0396 264.844 40.5179C265.188 40.5179 265.532 40.5179 265.886 40.5179C265.886 38.1125 265.886 35.7072 265.886 33.2289C265.542 33.2289 265.198 33.2289 264.844 33.2289Z" fill="#C19B3E"/>
<path d="M261.716 293.549C263.778 293.549 265.839 293.549 267.963 293.549C267.963 315.197 267.963 336.845 267.963 359.149C274.149 359.149 280.334 359.149 286.707 359.149C286.707 337.501 286.707 315.853 286.707 293.549C288.081 293.549 289.456 293.549 290.872 293.549C290.869 294.408 290.867 295.266 290.865 296.151C290.844 304.226 290.828 312.301 290.818 320.377C290.812 324.529 290.805 328.681 290.793 332.833C290.782 336.836 290.776 340.84 290.773 344.843C290.771 346.374 290.767 347.905 290.762 349.436C290.754 351.573 290.753 353.709 290.753 355.846C290.751 357.065 290.749 358.284 290.746 359.539C290.56 362.196 290.56 362.196 291.913 363.315C291.913 340.292 291.913 317.269 291.913 293.549C292.6 293.549 293.287 293.549 293.995 293.549C293.995 331.004 293.995 368.459 293.995 407.048C278.532 407.048 263.069 407.048 247.138 407.048C247.138 406.705 247.138 406.361 247.138 406.007C261.914 406.007 276.689 406.007 291.913 406.007C291.913 392.606 291.913 379.205 291.913 365.397C291.226 365.397 290.538 365.397 289.83 365.397C289.83 378.111 289.83 390.825 289.83 403.925C195.678 403.925 101.525 403.925 4.51953 403.925C4.51953 396.708 4.51953 389.492 4.51953 382.058C6.06583 381.542 6.06583 381.542 7.64337 381.016C7.64337 387.545 7.64337 394.074 7.64337 400.801C99.7342 400.801 191.825 400.801 286.707 400.801C286.707 389.118 286.707 377.434 286.707 365.397C280.521 365.397 274.336 365.397 267.963 365.397C267.963 370.552 267.963 375.706 267.963 381.016C252.5 381.016 237.037 381.016 221.106 381.016C221.106 380.673 221.106 380.329 221.106 379.975C235.882 379.975 250.657 379.975 265.881 379.975C265.567 370.979 265.567 370.979 263.798 362.273C263.798 361.242 263.798 360.212 263.798 359.149C264.486 359.149 265.173 359.149 265.881 359.149C265.537 357.431 265.194 355.713 264.84 353.943C263.809 353.599 262.778 353.256 261.716 352.902C261.716 333.315 261.716 313.729 261.716 293.549ZM264.84 301.879C264.84 305.659 264.84 309.439 264.84 313.333C265.183 313.333 265.527 313.333 265.881 313.333C265.881 309.553 265.881 305.773 265.881 301.879C265.537 301.879 265.194 301.879 264.84 301.879ZM264.84 319.581C264.84 323.361 264.84 327.141 264.84 331.035C265.183 331.035 265.527 331.035 265.881 331.035C265.881 327.255 265.881 323.475 265.881 319.581C265.537 319.581 265.194 319.581 264.84 319.581ZM264.84 336.241C264.84 340.021 264.84 343.801 264.84 347.695C265.183 347.695 265.527 347.695 265.881 347.695C265.881 343.916 265.881 340.136 265.881 336.241C265.537 336.241 265.194 336.241 264.84 336.241ZM267.963 362.273C267.963 362.617 267.963 362.961 267.963 363.315C274.149 363.315 280.334 363.315 286.707 363.315C286.707 362.971 286.707 362.627 286.707 362.273C280.521 362.273 274.336 362.273 267.963 362.273Z" fill="#D0BB66"/>
<path d="M0.355469 26.9824C3.10445 26.9824 5.85343 26.9824 8.68571 26.9824C8.34209 27.6697 7.99847 28.3569 7.64443 29.065C5.92632 29.065 4.20821 29.065 2.43803 29.065C2.43803 144.866 2.43803 260.667 2.43803 379.976C1.75078 379.976 1.06354 379.976 0.355469 379.976C0.355469 263.488 0.355469 147 0.355469 26.9824Z" fill="#CDB864"/>
<path d="M35.7627 358.107C36.7936 358.451 37.8244 358.795 38.8865 359.149C41.8403 359.247 44.7681 359.284 47.7218 359.274C48.6345 359.275 49.5471 359.276 50.4874 359.277C53.5571 359.278 56.6269 359.273 59.6966 359.267C61.8925 359.267 64.0883 359.267 66.2842 359.267C72.2561 359.268 78.228 359.262 84.1999 359.254C90.437 359.248 96.6741 359.247 102.911 359.246C114.727 359.243 126.542 359.234 138.358 359.224C151.807 359.212 165.257 359.206 178.707 359.201C206.378 359.19 234.049 359.172 261.721 359.149C261.721 360.18 261.721 361.21 261.721 362.273C187.154 362.273 112.588 362.273 35.7627 362.273C35.7627 360.898 35.7627 359.524 35.7627 358.107Z" fill="#B2953F"/>
<path d="M7.64443 377.893C7.64443 378.58 7.64443 379.267 7.64443 379.975C78.0871 379.975 148.53 379.975 221.107 379.975C221.107 380.319 221.107 380.662 221.107 381.016C192.904 381.177 164.7 381.331 136.497 381.478C123.402 381.546 110.308 381.616 97.2134 381.691C85.8041 381.757 74.3947 381.818 62.9854 381.876C56.9408 381.906 50.8962 381.938 44.8517 381.975C39.1682 382.009 33.4848 382.039 27.8012 382.065C25.7099 382.075 23.6186 382.087 21.5273 382.101C18.6827 382.12 15.8381 382.133 12.9935 382.143C11.7385 382.154 11.7385 382.154 10.4581 382.165C4.75825 382.177 4.75825 382.177 2.43803 381.016C2.43803 389.263 2.43803 397.51 2.43803 406.007C83.1893 406.007 163.941 406.007 247.139 406.007C247.139 406.351 247.139 406.694 247.139 407.048C165.7 407.048 84.2618 407.048 0.355469 407.048C0.355469 398.114 0.355469 389.18 0.355469 379.975C3.47931 377.893 3.47931 377.893 7.64443 377.893Z" fill="#B0943F"/>
<path d="M261.717 293.549C263.779 293.549 265.841 293.549 267.965 293.549C267.965 315.197 267.965 336.845 267.965 359.149C274.15 359.149 280.335 359.149 286.708 359.149C286.708 361.211 286.708 363.273 286.708 365.397C280.523 365.397 274.338 365.397 267.965 365.397C267.965 370.552 267.965 375.706 267.965 381.016C252.502 381.016 237.039 381.016 221.107 381.016C221.107 380.673 221.107 380.329 221.107 379.975C235.883 379.975 250.659 379.975 265.882 379.975C265.569 370.979 265.569 370.979 263.8 362.273C263.8 361.242 263.8 360.212 263.8 359.149C264.487 359.149 265.174 359.149 265.882 359.149C265.539 357.431 265.195 355.713 264.841 353.943C263.81 353.599 262.779 353.256 261.717 352.902C261.717 333.315 261.717 313.729 261.717 293.549ZM264.841 301.879C264.841 305.659 264.841 309.439 264.841 313.333C265.185 313.333 265.528 313.333 265.882 313.333C265.882 309.553 265.882 305.773 265.882 301.879C265.539 301.879 265.195 301.879 264.841 301.879ZM264.841 319.581C264.841 323.361 264.841 327.141 264.841 331.035C265.185 331.035 265.528 331.035 265.882 331.035C265.882 327.255 265.882 323.475 265.882 319.581C265.539 319.581 265.195 319.581 264.841 319.581ZM264.841 336.241C264.841 340.021 264.841 343.801 264.841 347.695C265.185 347.695 265.528 347.695 265.882 347.695C265.882 343.916 265.882 340.136 265.882 336.241C265.539 336.241 265.195 336.241 264.841 336.241Z" fill="#FAF5A9"/>
<path d="M116.11 29.7211C117.43 29.7254 117.43 29.7254 118.777 29.7298C119.789 29.7255 120.801 29.7212 121.843 29.7168C122.952 29.728 124.06 29.7393 125.202 29.7508C126.371 29.7504 127.539 29.7499 128.743 29.7494C132.614 29.7516 136.484 29.776 140.355 29.8004C143.035 29.8062 145.716 29.8107 148.396 29.8138C154.735 29.8245 161.074 29.8491 167.414 29.8805C174.631 29.9154 181.848 29.9326 189.065 29.9483C203.911 29.9809 218.757 30.0359 233.603 30.1055C233.603 31.1363 233.603 32.1672 233.603 33.2293C193.055 33.2293 152.508 33.2293 110.731 33.2293C113.855 30.1055 113.855 30.1055 116.11 29.7211Z" fill="#AD822C"/>
<path d="M291.915 293.549C292.602 293.549 293.289 293.549 293.997 293.549C293.997 331.004 293.997 368.459 293.997 407.048C278.534 407.048 263.071 407.048 247.14 407.048C247.14 406.705 247.14 406.361 247.14 406.007C261.915 406.007 276.691 406.007 291.915 406.007C291.915 392.606 291.915 379.205 291.915 365.397C291.227 365.397 290.54 365.397 289.832 365.397C289.832 364.71 289.832 364.023 289.832 363.315C290.519 363.315 291.207 363.315 291.915 363.315C291.915 340.292 291.915 317.269 291.915 293.549Z" fill="#F8F3A7"/>
<path d="M265.882 352.902C266.57 352.902 267.257 352.902 267.965 352.902C267.965 354.964 267.965 357.026 267.965 359.15C274.15 359.15 280.335 359.15 286.708 359.15C286.708 361.212 286.708 363.273 286.708 365.398C280.523 365.398 274.338 365.398 267.965 365.398C267.965 370.552 267.965 375.706 267.965 381.017C252.502 381.017 237.039 381.017 221.107 381.017C221.107 380.673 221.107 380.33 221.107 379.976C235.883 379.976 250.659 379.976 265.882 379.976C265.569 370.98 265.569 370.98 263.8 362.274C263.8 361.243 263.8 360.212 263.8 359.15C264.487 359.15 265.174 359.15 265.882 359.15C265.882 357.088 265.882 355.027 265.882 352.902Z" fill="#F0E99B"/>
<path d="M133.641 36.3538C136.255 39.305 136.779 40.8679 136.7 44.8142C135.724 47.8078 135.724 47.8078 133.967 49.7602C130.761 51.32 128.834 51.5188 125.311 50.9317C122.773 48.784 122.773 48.784 121.146 45.7253C121.081 41.9506 121.081 41.9506 122.187 38.4363C125.944 35.0017 128.878 34.6971 133.641 36.3538Z" fill="#E2D6A0"/>
<path d="M114.896 104.035C117.369 105.076 117.369 105.076 119.061 107.158C119.753 110.89 119.836 114.224 117.825 117.506C115.337 118.965 113.629 119.516 110.731 119.654C108.354 118.465 106.368 117.373 104.483 115.489C104.104 111.471 103.9 109.075 106.176 105.662C109.376 103.556 111.129 103.485 114.896 104.035Z" fill="#E1D39A"/>
<path d="M129.017 52.4941C132.597 53.0148 132.597 53.0148 134.549 54.2513C136.089 56.7326 136.622 58.413 136.762 61.345C135.573 63.7225 134.481 65.7081 132.597 67.5927C126.109 68.0733 126.109 68.0733 123.355 66.4213C121.652 63.5831 121.209 61.5367 121.143 58.2212C123.295 54.0962 124.367 53.1468 129.017 52.4941Z" fill="#E2D6A0"/>
<path d="M114.896 223.785C117.369 225.477 117.369 225.477 119.061 227.95C119.698 231.773 119.568 233.456 117.369 236.67C114.154 238.87 112.471 239 108.648 238.363C106.175 236.67 106.175 236.67 104.483 234.197C103.846 230.374 103.976 228.691 106.175 225.477C109.389 223.277 111.072 223.147 114.896 223.785Z" fill="#E1D39A"/>
<path d="M113.979 257.747C115.932 258.145 115.932 258.145 118.014 259.837C119.379 263.078 119.636 265.076 119.056 268.558C116.843 271.096 116.843 271.096 113.849 272.723C110.503 272.656 108.475 272.235 105.649 270.445C103.888 267.609 104.077 265.581 104.478 262.31C106.442 257.646 109.335 257.491 113.979 257.747Z" fill="#E1D39A"/>
<path d="M113.981 206.797C115.933 207.122 115.933 207.122 118.016 208.228C119.665 211.425 119.434 214.012 119.057 217.535C117.46 220.057 116.252 220.541 113.46 221.57C109.924 221.738 108.347 220.617 105.52 218.576C104.479 217.535 104.479 217.535 104.219 214.606C104.479 211.287 104.479 211.287 105.52 208.814C108.343 206.521 110.424 206.587 113.981 206.797Z" fill="#E1D39A"/>
<path d="M116.981 242.529C119.064 244.611 119.064 244.611 119.389 247.605C119.064 250.859 119.064 250.859 118.023 253.332C115.206 255.621 113.119 255.619 109.562 255.423C107.61 255.024 107.61 255.024 105.527 253.332C104.198 250.175 104.053 248.006 104.486 244.611C108.074 239.656 111.772 240.423 116.981 242.529Z" fill="#E1D39A"/>
<path d="M112.941 189.488C117.42 190.948 117.42 190.948 119.058 193.588C119.621 197.368 119.541 199.129 117.366 202.308C114.152 204.508 112.469 204.638 108.645 204C106.172 202.308 106.172 202.308 104.48 199.835C103.895 196.711 103.895 196.711 104.48 193.588C107.28 190.376 108.643 189.402 112.941 189.488Z" fill="#E1D39A"/>
<path d="M114.898 172.76C117.371 174.452 117.371 174.452 119.063 176.925C119.649 180.049 119.649 180.049 119.063 183.173C116.85 185.711 116.85 185.711 113.857 187.338C110.51 187.271 108.482 186.85 105.657 185.06C103.875 182.191 104.013 180.23 104.485 176.925C107.381 172.693 109.887 171.925 114.898 172.76Z" fill="#E1D39A"/>
<path d="M134.679 71.7567C136.267 74.9324 135.966 77.6319 135.721 81.1282C134.614 83.1457 134.614 83.1457 132.597 84.252C126.362 84.92 126.362 84.92 123.355 83.0155C121.815 80.5342 121.282 78.8538 121.143 75.9218C122.444 73.0583 122.444 73.0583 124.266 70.7154C128.401 69.3373 130.635 70.3339 134.679 71.7567Z" fill="#E2D6A0"/>
<path d="M7.6436 377.893C7.6436 378.58 7.6436 379.267 7.6436 379.975C22.763 379.975 37.8824 379.975 53.4599 379.975C53.4599 380.319 53.4599 380.662 53.4599 381.016C46.5284 381.191 39.5967 381.358 32.6648 381.519C30.3053 381.574 27.9458 381.632 25.5864 381.691C22.2006 381.777 18.8147 381.855 15.4288 381.932C13.8392 381.974 13.8392 381.974 12.2174 382.017C10.7479 382.048 10.7479 382.048 9.24873 382.08C8.38394 382.101 7.51915 382.122 6.62815 382.143C4.51976 382.058 4.51976 382.058 2.4372 381.016C2.4372 389.263 2.4372 397.51 2.4372 406.007C17.213 406.007 31.9887 406.007 47.2122 406.007C47.2122 406.351 47.2122 406.694 47.2122 407.048C31.7492 407.048 16.2862 407.048 0.354635 407.048C0.290206 402.624 0.225777 398.2 0.159395 393.642C0.130956 392.247 0.102516 390.853 0.073215 389.416C0.061512 387.775 0.061512 387.775 0.0495727 386.101C0.0332137 384.977 0.0168547 383.854 0 382.697C0.11703 381.799 0.234059 380.901 0.354635 379.975C3.47848 377.893 3.47848 377.893 7.6436 377.893Z" fill="#C6992B"/>
<path d="M247.916 26.9079C252.42 26.9187 256.923 26.9234 261.427 26.9286C270.201 26.9396 278.975 26.9573 287.75 26.9794C287.75 27.3231 287.75 27.6667 287.75 28.0207C281.221 28.0207 274.692 28.0207 267.965 28.0207C267.965 28.708 267.965 29.3952 267.965 30.1033C241.85 29.7596 215.735 29.416 188.828 29.062C188.828 28.7184 188.828 28.3747 188.828 28.0207C208.514 26.7077 228.198 26.8554 247.916 26.9079Z" fill="#BE922C"/>
<path d="M113.331 155.644C116.833 157.658 117.705 159.632 119.058 163.389C118.791 166.588 118.24 167.33 115.934 169.636C108.686 170.211 108.686 170.211 105.521 168.53C103.871 165.334 104.102 162.746 104.48 159.223C106.783 155.933 109.311 154.74 113.331 155.644Z" fill="#E2D199"/>
<path d="M131.494 344.223C133.638 344.573 133.638 344.573 135.721 346.655C136.049 351.171 136.188 353.243 133.638 357.068C129.99 358.203 128.056 358.361 124.462 357.003C122.184 354.985 122.184 354.985 121.143 351.927C121.143 348.738 121.143 348.738 122.054 346.265C125.155 343.893 127.681 344.16 131.494 344.223Z" fill="#E3D49F"/>
<path d="M133.635 310.208C136.044 313.821 136.16 315.334 135.718 319.58C134.081 322.078 132.888 322.606 130.056 323.55C127.021 323.772 125.719 323.356 123.223 321.663C121.617 318.452 121.872 315.822 122.181 312.291C125.42 308.146 128.885 308.977 133.635 310.208Z" fill="#E2D6A0"/>
<path d="M149.259 36.3544C151.436 37.8564 152.184 39.0211 153.228 41.4307C153.49 44.4012 152.691 46.2217 151.341 48.8498C148.131 50.4551 145.501 50.2008 141.97 49.8911C139.887 48.2641 139.887 48.2641 138.846 45.726C138.976 41.9513 138.976 41.9513 139.887 38.437C143.499 36.0287 145.012 35.9121 149.259 36.3544Z" fill="#E4D8A6"/>
<path d="M148.478 53.73C151.341 55.0966 151.341 55.0966 152.382 57.1792C152.773 60.7586 152.773 60.7586 152.382 64.4682C149.66 66.9575 148.129 67.6147 144.443 67.5269C141.34 66.3022 140.307 65.3889 138.846 62.3856C138.846 59.1967 138.846 59.1967 139.887 56.1379C143.039 53.2558 144.266 52.8391 148.478 53.73Z" fill="#E4D8A6"/>
<path d="M233.601 30.1055C243.566 30.1055 253.531 30.1055 263.798 30.1055C265.454 35.075 265.146 39.6773 263.798 44.6834C264.141 45.027 264.485 45.3706 264.839 45.7247C264.882 48.154 264.883 50.5844 264.839 53.0136C263.808 53.0136 262.777 53.0136 261.715 53.0136C261.715 46.4848 261.715 39.956 261.715 33.2293C252.437 33.2293 243.16 33.2293 233.601 33.2293C233.601 32.1984 233.601 31.1676 233.601 30.1055Z" fill="#CE9F2D"/>
<path d="M131.555 241.485C134.093 243.177 134.093 243.177 135.72 245.65C135.72 249.309 135.336 251.143 132.922 253.915C129.616 255.434 127.704 255.026 124.266 253.98C121.858 250.368 121.741 248.855 122.184 244.609C124.482 240.777 127.372 240.887 131.555 241.485Z" fill="#E2D6A0"/>
<path d="M131.555 87.3771C134.028 88.939 134.028 88.939 135.72 90.5009C135.197 95.0788 133.666 97.5763 130.514 100.914C127.39 101.955 127.39 101.955 125.177 101.109C123.225 99.8724 123.225 99.8724 122.183 97.7899C121.712 91.3122 121.712 91.3122 123.355 88.4834C126.246 86.8449 128.288 86.977 131.555 87.3771Z" fill="#E2D5A0"/>
<path d="M149.256 70.7157C151.208 71.8221 151.208 71.8221 152.38 73.8396C152.835 77.4841 152.835 77.4841 152.38 81.1285C150.687 83.2111 150.687 83.2111 148.214 84.2524C144.55 84.1776 142.689 83.8637 139.949 81.3889C138.843 79.046 138.843 79.046 138.973 76.3777C140.947 70.8793 143.503 69.9966 149.256 70.7157Z" fill="#E4D8A6"/>
<path d="M129.477 207.252C132.601 208.163 132.601 208.163 134.619 209.92C136.138 213.226 135.73 215.138 134.684 218.576C131.56 220.658 131.56 220.658 127.85 220.463C124.271 219.617 124.271 219.617 122.188 216.493C122.384 212.784 122.384 212.784 123.23 209.204C126.354 207.122 126.354 207.122 129.477 207.252Z" fill="#E2D6A0"/>
<path d="M150.3 344.572C152.708 348.184 152.825 349.697 152.382 353.943C151.211 355.896 151.211 355.896 149.259 357.067C145.94 357.482 143.925 357.698 141.124 355.766C139.666 353.618 138.999 352.387 138.846 349.778C141.792 343.746 143.816 342.951 150.3 344.572Z" fill="#E4D8A6"/>
<path d="M131.235 292.572C133.643 293.549 133.643 293.549 135.725 295.631C136.294 301.884 136.294 301.884 134.619 304.938C131.435 306.683 128.862 306.424 125.312 306.044C123.23 304.807 123.23 304.807 122.188 302.92C122.188 299.167 123.246 297.693 125.573 294.72C128.436 292.507 128.436 292.507 131.235 292.572Z" fill="#E3D5A0"/>
<path d="M132.593 224.826C134.676 226.518 134.676 226.518 135.717 228.991C135.488 232.816 135.332 234.582 132.593 237.321C126.291 237.894 126.291 237.894 123.287 236.15C121.655 233.271 121.775 231.197 122.181 227.95C124.551 223.767 128.212 224.278 132.593 224.826Z" fill="#E2D6A0"/>
<path d="M131.551 190.462C134.089 192.154 134.089 192.154 135.716 194.627C135.781 197.816 135.781 197.816 134.675 200.875C132.332 202.957 132.332 202.957 129.469 203.999C126.163 203.153 124.593 202.247 122.18 199.834C121.836 196.602 121.653 194.463 123.351 191.634C126.266 189.884 128.217 189.986 131.551 190.462Z" fill="#E2D6A0"/>
<path d="M115.934 121.739C115.345 126.623 114.7 131.47 113.852 136.317C110.803 135.978 108.306 135.697 105.651 134.104C103.778 130.981 104.1 128.41 104.48 124.863C107.553 120.474 111.062 120.554 115.934 121.739Z" fill="#E1D39A"/>
<path d="M166.958 37.3922C169.041 39.4748 169.041 39.4748 169.431 43.0542C169.041 46.7638 169.041 46.7638 167.349 48.8463C164.005 50.2541 162.065 49.8923 158.628 48.8463C156.545 45.7225 156.545 45.7225 156.806 41.9478C157.063 40.7881 157.321 39.6284 157.587 38.4335C160.724 36.8647 163.504 37.2072 166.958 37.3922Z" fill="#E4DAAD"/>
<path d="M165.921 54.0535C167.809 55.225 167.809 55.225 169.045 57.1774C169.455 60.4566 169.596 62.5078 167.874 65.3774C164.973 67.1181 162.985 67.0318 159.674 66.5489C157.656 64.8568 157.656 64.8568 156.55 62.3838C156.68 59.1298 156.68 59.1298 157.591 56.1361C160.957 53.8921 162.018 53.5656 165.921 54.0535Z" fill="#E4DAAD"/>
<path d="M141.973 293.549C145.552 293.093 145.552 293.093 149.261 293.549C151.344 295.306 151.344 295.306 152.385 297.714C152.385 300.382 152.385 300.382 151.344 302.92C149.001 304.938 149.001 304.938 146.138 306.044C143.607 305.354 141.763 304.793 139.89 302.92C139.616 298.722 139.584 297.132 141.973 293.549Z" fill="#E4D8A6"/>
<path d="M150.296 140.481C152.542 145.972 152.542 145.972 151.858 149.136C150.296 150.894 150.296 150.894 147.302 151.87C144.048 151.935 144.048 151.935 141.575 150.829C139.883 148.811 139.883 148.811 139.428 145.687C139.883 142.563 139.883 142.563 140.99 140.546C144.178 138.797 146.853 139.766 150.296 140.481Z" fill="#E4D8A6"/>
<path d="M149.26 122.779C151.278 124.536 151.278 124.536 152.384 126.944C152.304 130.25 151.758 131.674 149.586 134.168C147.178 135.275 147.178 135.275 143.859 134.494C140.93 133.192 140.93 133.192 139.889 132.151C139.414 126.694 139.414 126.694 141.06 123.951C143.961 122.21 145.949 122.296 149.26 122.779Z" fill="#E4D8A6"/>
<path d="M162.732 344.248C165.921 344.573 165.921 344.573 167.939 345.68C169.687 348.868 168.718 351.543 168.004 354.986C165.942 355.673 163.88 356.361 161.756 357.069C159.088 354.791 159.088 354.791 156.55 351.862C156.658 347.191 157.868 344.766 162.732 344.248Z" fill="#E4DAAD"/>
<path d="M113.85 138.399C113.85 143.209 113.85 148.02 113.85 152.977C110.336 152.651 110.336 152.651 106.561 151.935C104.137 148.3 103.955 146.841 104.478 142.564C107.521 138.281 108.316 138.399 113.85 138.399Z" fill="#E2D198"/>
<path d="M149.258 310.208C151.21 311.445 151.21 311.445 152.382 313.332C152.707 316 152.707 316 152.382 318.539C149.885 321.035 148.911 320.978 145.483 321.272C144.632 321.35 143.781 321.428 142.904 321.508C142.252 321.559 141.6 321.61 140.928 321.662C139.47 318.748 139.623 316.555 139.886 313.332C142.187 309.498 145.073 309.685 149.258 310.208Z" fill="#E4D6A5"/>
<path d="M150.303 225.866C152.549 231.356 152.549 231.356 151.865 234.521C150.303 236.278 150.303 236.278 147.309 237.255C144.055 237.32 144.055 237.32 141.582 236.213C139.89 234.196 139.89 234.196 139.369 231.072C139.89 227.948 139.89 227.948 141.582 225.931C144.848 224.47 146.892 225.013 150.303 225.866Z" fill="#E4D8A6"/>
<path d="M112.816 309.168C115.801 309.765 116.837 310.065 119.063 312.292C119.661 319.825 119.661 319.825 117.501 322.705C116.986 323.048 116.471 323.392 115.94 323.746C112.36 322.9 112.36 322.9 108.651 321.663C107.609 318.539 107.609 318.539 108.647 316.184C109.142 315.351 109.637 314.517 110.147 313.658C110.64 312.817 111.133 311.975 111.64 311.108C112.028 310.468 112.416 309.828 112.816 309.168Z" fill="#E2D199"/>
<path d="M149.254 157.141C151.336 158.833 151.336 158.833 152.377 161.306C151.096 166.753 151.096 166.753 149.254 168.595C146.07 168.872 143.83 169.047 140.988 167.489C139.207 164.241 140.085 161.665 140.923 158.183C143.869 156.71 145.998 156.809 149.254 157.141Z" fill="#E4D8A6"/>
<path d="M149.254 242.524C151.336 244.802 151.336 244.802 152.377 247.731C151.687 250.261 151.127 252.105 149.254 253.979C146.07 254.255 143.83 254.431 140.988 252.872C139.207 249.625 140.085 247.048 140.923 243.566C143.903 242.076 145.963 242.122 149.254 242.524Z" fill="#E4D8A6"/>
<path d="M149.256 208.163C151.339 210.44 151.339 210.44 152.38 213.369C151.69 215.9 151.129 217.744 149.256 219.617C143.763 220.094 143.763 220.094 141.056 218.38C139.461 215.811 139.439 214.259 139.885 211.287C142.228 207.511 145.076 207.466 149.256 208.163Z" fill="#E4D8A6"/>
<path d="M129.929 258.277C132.597 259.188 132.597 259.188 134.485 261.856C134.893 262.694 135.301 263.531 135.721 264.394C132.629 266.456 129.536 268.518 126.35 270.642C124.975 269.955 123.601 269.268 122.185 268.559C121.802 262.816 121.802 262.816 123.616 260.424C125.96 258.711 126.976 258.125 129.929 258.277Z" fill="#E3D39E"/>
<path d="M182.576 37.3917C184.529 38.4981 184.529 38.4981 185.7 40.5156C185.237 47.226 185.237 47.226 183.618 48.8458C178.124 49.3235 178.124 49.3235 175.417 47.6093C173.823 45.0399 173.8 43.4882 174.246 40.5156C176.478 37.1082 178.652 36.8031 182.576 37.3917Z" fill="#E5DCB3"/>
<path d="M165.92 293.549C167.938 295.827 167.938 295.827 169.044 298.755C168.354 301.286 167.793 303.13 165.92 305.003C163.484 304.704 161.053 304.358 158.631 303.962C157.243 297.271 157.243 297.271 158.761 294.655C161.435 293.14 162.9 292.945 165.92 293.549Z" fill="#E5DAAD"/>
<path d="M162.725 105.729C165.914 106.119 165.914 106.119 167.932 107.876C169.34 110.941 169.153 112.351 167.997 115.491C164.873 117.573 164.873 117.573 162.205 117.313C159.666 116.532 159.666 116.532 157.584 114.449C157.324 111.325 157.324 111.325 157.584 108.202C159.666 106.119 159.666 106.119 162.725 105.729Z" fill="#E5DAAD"/>
<path d="M183.621 55.0934C185.704 57.176 185.704 57.176 185.964 60.2998C185.704 63.4236 185.704 63.4236 183.621 65.5062C179.977 65.8316 179.977 65.8316 176.332 65.5062C174.25 62.3824 174.25 62.3824 174.51 59.1284C174.896 57.6465 174.896 57.6465 175.291 56.1347C178.167 54.6964 180.442 54.8947 183.621 55.0934Z" fill="#E5DCB3"/>
<path d="M163.904 122.777C166.963 123.819 166.963 123.819 168.59 126.162C169.046 129.025 169.046 129.025 167.614 131.954C166.776 133.081 166.776 133.081 165.922 134.231C163.516 133.888 161.111 133.544 158.633 133.19C157.252 126.539 157.252 126.539 158.698 123.819C160.715 122.777 160.715 122.777 163.904 122.777Z" fill="#E5DAAD"/>
<path d="M184.665 346.656C185.009 347 185.352 347.343 185.706 347.698C185.407 350.134 185.061 352.564 184.665 354.986C182.26 355.33 179.854 355.674 177.376 356.028C175.131 353.603 174.237 352.497 174.317 349.129C175.294 346.656 175.294 346.656 177.116 345.159C180.264 344.372 181.829 345.2 184.665 346.656Z" fill="#E5DCB3"/>
<path d="M162.731 276.434C165.92 276.889 165.92 276.889 167.872 279.492C168.259 280.351 168.645 281.21 169.044 282.096C167.872 284.699 167.872 284.699 165.92 287.302C162.731 287.758 162.731 287.758 159.672 287.302C157.589 285.219 157.589 285.219 157.329 282.096C157.684 277.835 158.52 277.061 162.731 276.434Z" fill="#E5DAAD"/>
<path d="M148.212 276.889C149.243 277.232 150.274 277.576 151.336 277.93C152.711 283.431 152.711 283.431 151.271 286.651C149.253 288.343 149.253 288.343 146.13 288.798C142.804 288.313 141.856 287.851 139.882 285.219C141.445 280.841 144.227 279.085 148.212 276.889Z" fill="#E4D6A5"/>
<path d="M166.957 158.182C167.999 159.223 167.999 159.223 168.064 162.933C168.042 164.114 168.021 165.295 167.999 166.512C165.135 167.748 165.135 167.748 161.751 168.594C159.278 167.163 159.278 167.163 157.586 165.471C157.852 163.031 158.203 160.599 158.627 158.182C161.628 156.681 163.748 157.499 166.957 158.182Z" fill="#E5DAAD"/>
<path d="M114.894 274.806C115.581 275.149 116.268 275.493 116.976 275.847C115.51 279.195 113.745 281.389 111.119 283.917C110.132 284.875 110.132 284.875 109.126 285.853C108.624 286.331 108.122 286.809 107.605 287.301C106.574 286.958 105.543 286.614 104.481 286.26C103.978 279.725 103.978 279.725 106.173 276.433C109.31 274.369 111.205 274.405 114.894 274.806Z" fill="#E2D097"/>
<path d="M162.79 140.219C165.914 140.479 165.914 140.479 167.997 142.562C168.257 145.685 168.257 145.685 167.997 148.809C165.914 150.892 165.914 150.892 162.79 151.152C159.666 150.892 159.666 150.892 157.584 148.809C157.324 145.685 157.324 145.685 157.584 142.562C159.666 140.479 159.666 140.479 162.79 140.219Z" fill="#E5DAAD"/>
<path d="M162.792 225.607C165.916 225.868 165.916 225.868 167.998 227.95C168.258 231.074 168.258 231.074 167.998 234.198C165.916 236.281 165.916 236.281 162.792 236.606C161.761 236.499 160.73 236.391 159.668 236.281C157.43 232.924 157.187 231.837 157.585 227.95C159.668 225.868 159.668 225.868 162.792 225.607Z" fill="#E5DAAD"/>
<path d="M164.556 208.362C166.964 209.208 166.964 209.208 168.005 211.29C168.266 214.414 168.266 214.414 168.005 217.538C164.882 219.62 164.882 219.62 162.213 219.36C159.675 218.579 159.675 218.579 157.593 216.497C157.202 213.958 157.202 213.958 157.593 211.29C159.949 208.672 161.018 208.115 164.556 208.362Z" fill="#E5DAAD"/>
<path d="M197.153 38.1738C200.277 38.4341 200.277 38.4341 202.359 40.5167C201.969 44.2913 201.969 44.2913 201.318 47.8057C195.646 49.1922 195.646 49.1922 193.118 47.6755C191.575 45.1038 191.568 43.4676 191.947 40.5167C194.029 38.4341 194.029 38.4341 197.153 38.1738Z" fill="#E7DFB9"/>
<path d="M181.079 106.184C183.617 107.16 183.617 107.16 185.179 109.568C185.7 112.367 185.7 112.367 184.593 114.775C182.576 116.532 182.576 116.532 179.908 116.922C177.37 116.532 177.37 116.532 175.287 114.449C174.962 111.325 174.962 111.325 175.287 108.202C178.411 106.119 178.411 106.119 181.079 106.184Z" fill="#E5DCB3"/>
<path d="M184.666 90.5007C185.624 93.6377 185.997 95.1107 184.536 98.115C182.583 99.8722 182.583 99.8722 179.98 100.393C177.377 99.8722 177.377 99.8722 175.489 97.7896C175.081 97.1024 174.673 96.4152 174.253 95.7071C175.274 93.1535 176.01 91.7701 178.288 90.1753C180.865 89.3415 182.149 89.6018 184.666 90.5007Z" fill="#E5DAB1"/>
<path d="M162.727 174.646C165.916 174.842 165.916 174.842 167.999 176.924C168.129 180.178 168.129 180.178 167.999 183.172C164.475 184.279 163.229 184.437 159.864 182.716C159.112 182.179 158.36 181.643 157.586 181.089C158.696 174.904 158.696 174.904 162.727 174.646Z" fill="#E5D8AB"/>
<path d="M184.661 278.971C184.791 281.965 184.791 281.965 184.661 285.219C182.578 287.301 182.578 287.301 179.975 287.562C177.372 287.301 177.372 287.301 175.289 285.219C175.68 281.444 175.68 281.444 176.33 277.93C180.103 276.672 181.163 277.364 184.661 278.971Z" fill="#E5DCB3"/>
<path d="M183.619 141.521C184.661 142.563 184.661 142.563 184.921 145.621C184.835 146.674 184.749 147.726 184.661 148.81C181.537 150.893 181.537 150.893 178.803 150.567C176.33 149.852 176.33 149.852 175.289 148.81C175.614 145.166 175.614 145.166 176.33 141.521C179.125 140.124 180.655 140.761 183.619 141.521Z" fill="#E5DCB3"/>
<path d="M116.217 29.75C117.117 29.7664 118.017 29.7827 118.944 29.7996C120.408 29.8147 120.408 29.8147 121.903 29.8301C122.92 29.8563 123.936 29.8824 124.984 29.9094C126.013 29.9235 127.042 29.9376 128.102 29.9521C130.642 29.9889 133.182 30.0403 135.722 30.1046C135.722 30.4483 135.722 30.7919 135.722 31.1459C138.128 31.4895 140.533 31.8332 143.011 32.1872C143.011 32.5308 143.011 32.8744 143.011 33.2285C132.359 33.2285 121.707 33.2285 110.731 33.2285C113.855 30.1046 113.855 30.1046 116.217 29.75Z" fill="#AE883E"/>
<path d="M201.324 346.656C201.975 349.064 201.975 349.064 202.365 351.862C201.335 353.409 201.335 353.409 200.283 354.986C197.159 355.377 197.159 355.377 194.035 354.986C191.953 351.862 191.953 351.862 192.213 349.129C192.471 348.313 192.728 347.497 192.994 346.656C195.974 345.166 198.131 346.031 201.324 346.656Z" fill="#E7DFB9"/>
<path d="M177.37 294.59C181.144 294.98 181.144 294.98 184.659 295.631C184.703 298.06 184.701 300.491 184.659 302.92C183.617 303.961 183.617 303.961 180.559 304.157C177.37 303.961 177.37 303.961 175.287 301.879C175.027 299.276 175.027 299.276 175.287 296.672C175.974 295.985 176.662 295.298 177.37 294.59Z" fill="#E5DCB3"/>
<path d="M179.975 123.559C182.578 123.819 182.578 123.819 184.661 125.901C184.856 129.09 184.856 129.09 184.661 132.149C183.619 133.19 183.619 133.19 179.91 133.256C178.729 133.234 177.547 133.213 176.33 133.19C175.68 129.676 175.68 129.676 175.289 125.901C177.372 123.819 177.372 123.819 179.975 123.559Z" fill="#E5DCB3"/>
<path d="M179.973 259.969C182.576 260.229 182.576 260.229 184.659 262.312C184.854 265.501 184.854 265.501 184.659 268.559C183.617 269.601 183.617 269.601 180.559 269.796C177.37 269.601 177.37 269.601 175.287 267.518C175.027 264.915 175.027 264.915 175.287 262.312C177.37 260.229 177.37 260.229 179.973 259.969Z" fill="#E5DCB3"/>
<path d="M184.666 227.948C184.666 230.009 184.666 232.071 184.666 234.195C179.85 236.408 179.85 236.408 176.336 235.237C175.164 229.249 175.164 229.249 176.336 226.906C180.108 225.649 181.169 226.341 184.666 227.948Z" fill="#E5DCB3"/>
<path d="M179.973 157.924C182.576 158.184 182.576 158.184 184.659 160.267C184.919 162.87 184.919 162.87 184.659 165.473C182.576 167.556 182.576 167.556 179.973 167.816C177.37 167.556 177.37 167.556 175.287 165.473C175.027 162.87 175.027 162.87 175.287 160.267C177.37 158.184 177.37 158.184 179.973 157.924Z" fill="#E5DCB3"/>
<path d="M194.03 328.953C197.284 328.758 197.284 328.758 200.278 328.953C201.514 331.296 201.514 331.296 202.36 334.159C200.928 336.567 200.928 336.567 199.236 338.325C196.144 337.809 196.144 337.809 192.989 337.283C192.338 334.875 192.338 334.875 191.947 332.077C192.635 331.046 193.322 330.015 194.03 328.953Z" fill="#E7DFB9"/>
<path d="M181.146 175.168C183.62 175.884 183.62 175.884 184.661 176.925C184.362 179.361 184.016 181.792 183.62 184.214C180.626 184.344 180.626 184.344 177.372 184.214C175.289 182.132 175.289 182.132 174.964 179.528C175.071 178.669 175.179 177.81 175.289 176.925C178.413 174.843 178.413 174.843 181.146 175.168Z" fill="#E5DCB3"/>
<path d="M211.731 38.4355C214.985 38.826 214.985 38.826 217.979 39.4768C218.629 42.4705 218.629 42.4705 219.02 45.7245C216.937 47.8071 216.937 47.8071 214.334 48.0674C211.731 47.8071 211.731 47.8071 209.648 45.7245C209.388 43.1213 209.388 43.1213 209.648 40.5181C210.336 39.8309 211.023 39.1436 211.731 38.4355Z" fill="#E9E1BF"/>
<path d="M108.649 329.992C109.47 330.079 110.29 330.167 111.135 330.257C119.48 331.037 127.393 330.878 135.723 329.992C135.723 331.71 135.723 333.428 135.723 335.199C132.143 335.084 128.564 334.948 124.985 334.808C123.968 334.776 122.951 334.744 121.903 334.71C120.927 334.67 119.95 334.63 118.944 334.588C118.045 334.556 117.145 334.523 116.218 334.489C112.827 334.013 111.023 332.366 108.649 329.992Z" fill="#EA8567"/>
<path d="M181.537 328.955C182.568 329.299 183.598 329.642 184.661 329.996C185.311 332.404 185.311 332.404 185.702 335.203C184.671 336.749 184.671 336.749 183.619 338.327C179.845 338.522 179.845 338.522 176.33 338.327C175.987 336.608 175.643 334.89 175.289 333.12C178.218 330.973 178.218 330.973 181.537 328.955Z" fill="#E5DBB2"/>
<path d="M35.7627 358.107C36.7936 358.451 37.8244 358.795 38.8865 359.149C42.5631 359.209 46.2237 359.171 49.8993 359.108C54.344 359.061 58.4551 359.298 62.836 360.19C62.4924 360.877 62.1487 361.564 61.7947 362.273C53.2041 362.273 44.6136 362.273 35.7627 362.273C35.7627 360.898 35.7627 359.524 35.7627 358.107Z" fill="#CC9F2D"/>
<path d="M140.928 192.545C144.365 194.607 147.801 196.668 151.341 198.793C150.998 199.823 150.654 200.854 150.3 201.916C143.677 203.291 143.677 203.291 140.928 201.916C139.306 198.671 140.212 195.996 140.928 192.545Z" fill="#E4D6A4"/>
<path d="M196.112 89.457C198.69 90.4879 198.69 90.4879 201.319 91.5396C201.363 93.6217 201.361 95.7051 201.319 97.7873C200.278 98.8286 200.278 98.8286 197.089 98.8936C196.079 98.8722 195.07 98.8507 194.03 98.8286C193.343 97.1104 192.655 95.3923 191.947 93.6222C193.322 92.2477 194.696 90.8732 196.112 89.457Z" fill="#E7DFB9"/>
<path d="M123.221 174.842C126.936 177.628 129.897 180.42 132.593 184.213C132.593 184.901 132.593 185.588 132.593 186.296C125.951 186.672 125.951 186.672 123.286 185.124C121.694 182.315 121.91 180.095 122.18 176.924C122.523 176.237 122.867 175.55 123.221 174.842Z" fill="#E3D29D"/>
<path d="M194.032 107.16C196.468 107.459 198.899 107.805 201.321 108.201C201.321 110.263 201.321 112.325 201.321 114.449C198.913 115.621 198.913 115.621 196.115 116.532C195.084 115.844 194.053 115.157 192.991 114.449C192.731 111.26 192.731 111.26 192.991 108.201C193.335 107.858 193.678 107.514 194.032 107.16Z" fill="#E7DFB9"/>
<path d="M195.073 158.182C199.816 158.76 199.816 158.76 201.32 160.264C201.363 161.999 201.365 163.736 201.32 165.471C198.912 166.642 198.912 166.642 196.114 167.553C195.083 166.866 194.052 166.179 192.99 165.471C192.665 162.867 192.665 162.867 192.99 160.264C193.677 159.577 194.365 158.89 195.073 158.182Z" fill="#E7DFB9"/>
<path d="M196.115 123.82C198.913 124.731 198.913 124.731 201.321 125.903C201.452 128.376 201.452 128.376 201.321 131.109C200.634 131.797 199.947 132.484 199.239 133.192C194.495 132.613 194.495 132.613 192.991 131.109C192.731 128.571 192.731 128.571 192.991 125.903C194.022 125.216 195.053 124.528 196.115 123.82Z" fill="#E7DFB9"/>
<path d="M210.692 346.652C212.753 346.652 214.815 346.652 216.939 346.652C218.046 348.54 218.046 348.54 219.022 350.817C218.678 351.848 218.335 352.879 217.981 353.941C214.987 354.592 214.987 354.592 211.733 354.983C211.046 354.295 210.358 353.608 209.65 352.9C210.041 349.646 210.041 349.646 210.692 346.652Z" fill="#E9E1BF"/>
<path d="M195.074 277.928C199.817 278.506 199.817 278.506 201.321 280.01C201.452 282.613 201.452 282.613 201.321 285.217C200.28 286.258 200.28 286.258 197.156 286.388C194.032 286.258 194.032 286.258 192.991 285.217C192.796 282.679 192.796 282.679 192.991 280.01C193.678 279.323 194.366 278.636 195.074 277.928Z" fill="#E7DFB9"/>
<path d="M197.157 261.141C200.281 261.271 200.281 261.271 201.322 262.312C201.518 264.85 201.518 264.85 201.322 267.518C200.635 268.206 199.948 268.893 199.24 269.601C194.496 269.023 194.496 269.023 192.992 267.518C192.862 264.915 192.862 264.915 192.992 262.312C194.033 261.271 194.033 261.271 197.157 261.141Z" fill="#E7DFB9"/>
<path d="M197.157 175.752C200.281 175.882 200.281 175.882 201.322 176.923C201.518 179.462 201.518 179.462 201.322 182.13C200.635 182.817 199.948 183.504 199.24 184.212C194.496 183.634 194.496 183.634 192.992 182.13C192.862 179.527 192.862 179.527 192.992 176.923C194.033 175.882 194.033 175.882 197.157 175.752Z" fill="#E7DFB9"/>
<path d="M196.574 141.328C199.242 141.523 199.242 141.523 201.325 143.606C200.746 148.35 200.746 148.35 199.242 149.854C196.639 149.984 196.639 149.984 194.036 149.854C192.994 148.812 192.994 148.812 192.864 145.688C193.035 141.6 193.035 141.6 196.574 141.328Z" fill="#E7DFB9"/>
<path d="M233.601 30.1046C236.465 30.0202 239.326 29.9583 242.191 29.9094C243.001 29.8832 243.81 29.857 244.644 29.8301C245.429 29.82 246.214 29.8099 247.023 29.7996C248.103 29.775 248.103 29.775 249.205 29.75C251.302 30.1046 251.302 30.1046 255.467 33.2285C248.251 33.2285 241.035 33.2285 233.601 33.2285C233.601 32.1976 233.601 31.1667 233.601 30.1046Z" fill="#C4982C"/>
<path d="M195.076 192.545C197.809 192.935 197.809 192.935 200.282 193.586C201.454 198.532 201.454 198.532 200.282 200.875C198.22 200.875 196.159 200.875 194.034 200.875C193.384 197.881 193.384 197.881 192.993 194.627C193.68 193.94 194.368 193.253 195.076 192.545Z" fill="#E7DFB9"/>
<path d="M211.733 312.293C214.401 312.033 214.401 312.033 216.939 312.293C217.981 313.334 217.981 313.334 218.046 316.523C218.024 317.532 218.003 318.542 217.981 319.582C215.919 319.925 213.857 320.269 211.733 320.623C210.562 318.215 210.562 318.215 209.65 315.417C210.338 314.386 211.025 313.355 211.733 312.293Z" fill="#E9E1BF"/>
<path d="M211.733 90.498C214.401 90.2377 214.401 90.2377 216.939 90.498C217.981 91.5393 217.981 91.5393 218.046 94.7282C218.024 95.7376 218.003 96.747 217.981 97.7869C215.919 98.1306 213.857 98.4742 211.733 98.8282C210.562 96.4203 210.562 96.4203 209.65 93.6218C210.338 92.5909 211.025 91.5601 211.733 90.498Z" fill="#E9E1BF"/>
<path d="M230.932 39.2793C233.6 39.4745 233.6 39.4745 235.683 41.5571C235.292 44.2905 235.292 44.2905 234.641 46.7635C232.168 47.4143 232.168 47.4143 229.435 47.8048C227.352 45.7222 227.352 45.7222 227.157 43.0539C227.42 39.6415 227.519 39.5418 230.932 39.2793Z" fill="#E9E4C6"/>
<path d="M216.939 329.995C217.981 331.037 217.981 331.037 218.111 333.64C217.981 336.243 217.981 336.243 216.939 337.284C214.401 337.48 214.401 337.48 211.733 337.284C211.046 336.597 210.358 335.91 209.65 335.202C209.911 332.534 209.911 332.534 210.692 329.995C213.297 328.693 214.235 329.123 216.939 329.995Z" fill="#E9E1BF"/>
<path d="M212.774 107.16C215 107.422 216.376 107.638 217.981 109.243C218.111 111.846 218.111 111.846 217.981 114.449C216.939 115.49 216.939 115.49 214.271 115.555C213.433 115.534 212.596 115.513 211.733 115.49C211.046 113.772 210.358 112.054 209.65 110.284C210.952 108.657 210.952 108.657 212.774 107.16Z" fill="#E9E1BF"/>
<path d="M130.518 139.439C134.683 141.522 134.683 141.522 135.724 142.563C136.21 148.149 136.21 148.149 134.292 150.763C132.6 151.935 132.6 151.935 130.518 151.935C130.518 147.811 130.518 143.688 130.518 139.439Z" fill="#E3D6A2"/>
<path d="M261.715 331.037C262.402 332.412 263.089 333.786 263.797 335.202C264.141 335.546 264.485 335.889 264.839 336.244C264.942 338.063 264.974 339.887 264.969 341.71C264.972 342.704 264.974 343.697 264.977 344.72C264.845 347.557 264.433 350.141 263.797 352.904C263.11 352.904 262.423 352.904 261.715 352.904C261.715 345.688 261.715 338.472 261.715 331.037Z" fill="#FAF5AC"/>
<path d="M216.944 142.564C217.595 145.037 217.595 145.037 217.985 147.77C217.298 148.457 216.611 149.145 215.903 149.853C213.169 149.462 213.169 149.462 210.696 148.811C210.696 146.75 210.696 144.688 210.696 142.564C213.29 141.267 214.248 141.755 216.944 142.564Z" fill="#E9E1BF"/>
<path d="M201.319 56.1363C201.662 57.1672 202.006 58.1981 202.36 59.2602C201.017 59.785 199.671 60.3047 198.325 60.8221C197.202 61.257 197.202 61.257 196.055 61.7007C194.03 62.384 194.03 62.384 191.947 62.384C192.338 59.3252 192.338 59.3252 192.989 56.1363C195.968 54.6464 198.126 55.5116 201.319 56.1363Z" fill="#E7DDB7"/>
<path d="M214.34 124.73C216.943 124.861 216.943 124.861 217.984 125.902C218.114 128.505 218.114 128.505 217.984 131.108C216.943 132.15 216.943 132.15 214.34 132.28C211.737 132.15 211.737 132.15 210.695 131.108C210.565 128.505 210.565 128.505 210.695 125.902C211.737 124.861 211.737 124.861 214.34 124.73Z" fill="#E9E1BF"/>
<path d="M152.382 109.242C152.614 112.096 152.744 113.865 151.211 116.336C148.451 118.084 146.205 117.785 143.011 117.572C144.952 113.042 147.151 109.242 152.382 109.242Z" fill="#E4D2A2"/>
<path d="M229.437 346.652C232.17 347.043 232.17 347.043 234.643 347.694C234.643 349.755 234.643 351.817 234.643 353.941C232.582 353.941 230.52 353.941 228.396 353.941C227.745 351.468 227.745 351.468 227.354 348.735C228.042 348.048 228.729 347.36 229.437 346.652Z" fill="#E9E4C6"/>
<path d="M214.398 159.158C215.655 159.19 215.655 159.19 216.936 159.223C218.108 164.169 218.108 164.169 216.936 166.512C215.202 166.557 213.465 166.555 211.73 166.512C210.689 165.471 210.689 165.471 210.559 162.868C210.736 159.321 210.838 159.245 214.398 159.158Z" fill="#E9E1BF"/>
<path d="M228.396 329.993C230.131 329.949 231.867 329.951 233.602 329.993C234.643 331.035 234.643 331.035 234.709 333.703C234.687 334.541 234.666 335.378 234.643 336.241C232.17 336.892 232.17 336.892 229.437 337.282C228.75 336.595 228.063 335.908 227.354 335.2C227.745 332.467 227.745 332.467 228.396 329.993Z" fill="#E9E4C6"/>
<path d="M214.399 244.545C215.656 244.577 215.656 244.577 216.937 244.61C217.588 247.083 217.588 247.083 217.979 249.816C217.291 250.504 216.604 251.191 215.896 251.899C213.163 251.508 213.163 251.508 210.69 250.858C210.645 249.123 210.647 247.386 210.69 245.651C211.731 244.61 211.731 244.61 214.399 244.545Z" fill="#E9E1BF"/>
<path d="M214.399 193.52C215.656 193.552 215.656 193.552 216.937 193.585C217.588 196.058 217.588 196.058 217.979 198.791C217.291 199.478 216.604 200.166 215.896 200.874C213.163 200.483 213.163 200.483 210.69 199.832C210.645 198.097 210.647 196.361 210.69 194.626C211.731 193.585 211.731 193.585 214.399 193.52Z" fill="#E9E1BF"/>
<path d="M216.937 176.925C217.335 178.649 217.681 180.387 217.979 182.131C216.937 183.173 216.937 183.173 214.334 183.303C211.731 183.173 211.731 183.173 210.69 182.131C210.647 180.396 210.645 178.66 210.69 176.925C213.284 175.628 214.241 176.116 216.937 176.925Z" fill="#E9E1BF"/>
<path d="M229.437 90.5C232.17 90.8905 232.17 90.8905 234.643 91.5413C234.688 93.2762 234.686 95.0127 234.643 96.7477C233.602 97.789 233.602 97.789 230.934 97.854C229.678 97.8218 229.678 97.8218 228.396 97.789C227.745 95.3159 227.745 95.3159 227.354 92.5826C228.042 91.8953 228.729 91.2081 229.437 90.5Z" fill="#E9E4C6"/>
<path d="M246.101 39.4766C247.846 39.7744 249.583 40.1199 251.308 40.5178C252.479 44.4226 252.479 44.4226 251.308 46.7655C249.573 46.81 247.836 46.8078 246.101 46.7655C245.06 45.7242 245.06 45.7242 244.93 43.121C245.06 40.5178 245.06 40.5178 246.101 39.4766Z" fill="#EAE6CD"/>
<path d="M228.396 108.201C230.131 108.156 231.867 108.158 233.602 108.201C234.643 109.242 234.643 109.242 234.709 111.91C234.687 112.748 234.666 113.585 234.643 114.448C232.17 115.099 232.17 115.099 229.437 115.489C228.75 114.802 228.063 114.115 227.354 113.407C227.745 110.674 227.745 110.674 228.396 108.201Z" fill="#E9E4C6"/>
<path d="M211.731 261.268C213.476 261.565 215.213 261.911 216.937 262.309C217.281 263.34 217.625 264.371 217.979 265.433C216.948 266.979 216.948 266.979 215.896 268.557C214.178 268.213 212.46 267.869 210.69 267.515C210.645 265.78 210.647 264.044 210.69 262.309C211.033 261.965 211.377 261.622 211.731 261.268Z" fill="#E9DFBD"/>
<path d="M166.957 243.566C165.916 246.69 165.916 246.69 162.857 248.447C159.668 249.814 159.668 249.814 157.586 249.814C157.976 246.755 157.976 246.755 158.627 243.566C161.607 242.076 163.765 242.941 166.957 243.566Z" fill="#E5D8AB"/>
<path d="M195.076 226.906C197.809 227.297 197.809 227.297 200.282 227.948C200.626 229.322 200.969 230.697 201.323 232.113C198.918 232.8 196.513 233.487 194.034 234.195C193.384 231.722 193.384 231.722 192.993 228.989C193.68 228.302 194.368 227.614 195.076 226.906Z" fill="#E7DDB7"/>
<path d="M287.749 26.982C287.749 27.3256 287.749 27.6692 287.749 28.0232C281.221 28.0232 274.692 28.0232 267.965 28.0232C267.965 28.7105 267.965 29.3977 267.965 30.1058C262.467 29.7622 256.969 29.4185 251.305 29.0645C251.305 28.7209 251.305 28.3773 251.305 28.0232C263.465 26.8788 275.548 26.8684 287.749 26.982Z" fill="#CFA22A"/>
<path d="M229.437 295.631C231.155 295.974 232.873 296.318 234.643 296.672C234.643 298.39 234.643 300.108 234.643 301.879C232.925 302.222 231.207 302.566 229.437 302.92C228.75 301.545 228.063 300.171 227.354 298.755C228.042 297.724 228.729 296.693 229.437 295.631Z" fill="#E9E4C6"/>
<path d="M229.437 124.861C231.155 125.205 232.873 125.549 234.643 125.903C234.643 127.621 234.643 129.339 234.643 131.109C232.925 131.453 231.207 131.796 229.437 132.15C228.75 130.776 228.063 129.401 227.354 127.985C228.042 126.954 228.729 125.923 229.437 124.861Z" fill="#E9E4C6"/>
<path d="M231.585 74.8145C233.099 74.8467 233.099 74.8467 234.643 74.8795C234.688 76.6144 234.686 78.351 234.643 80.0859C233.602 81.1272 233.602 81.1272 230.934 81.1923C229.678 81.1601 229.678 81.1601 228.396 81.1272C227.998 79.4027 227.652 77.6654 227.354 75.9208C228.396 74.8795 228.396 74.8795 231.585 74.8145Z" fill="#EADCBF"/>
<path d="M246.092 73.8379C247.837 74.1357 249.574 74.4812 251.299 74.8792C251.299 76.5973 251.299 78.3154 251.299 80.0856C247.394 81.257 247.394 81.257 245.051 80.0856C245.007 78.3507 245.009 76.6141 245.051 74.8792C245.395 74.5355 245.738 74.1919 246.092 73.8379Z" fill="#EAE6CD"/>
<path d="M228.39 313.332C230.108 313.332 231.827 313.332 233.597 313.332C233.995 315.057 234.34 316.794 234.638 318.538C233.597 319.58 233.597 319.58 230.928 319.645C229.672 319.613 229.672 319.613 228.39 319.58C227.219 315.675 227.219 315.675 228.39 313.332Z" fill="#E9E4C6"/>
<path d="M247.14 346.652C249.353 347.043 249.353 347.043 251.305 347.694C251.305 349.412 251.305 351.13 251.305 352.9C249.587 353.244 247.869 353.587 246.099 353.941C245.448 351.468 245.448 351.468 245.058 348.735C245.745 348.048 246.432 347.36 247.14 346.652Z" fill="#EAE6CD"/>
<path d="M151.336 328.954C151.68 329.641 152.023 330.329 152.377 331.037C150.885 331.591 149.387 332.13 147.887 332.664C146.636 333.117 146.636 333.117 145.361 333.579C143.006 334.161 143.006 334.161 139.882 333.119C139.882 332.088 139.882 331.058 139.882 329.995C143.76 329.274 147.39 328.838 151.336 328.954Z" fill="#E7B289"/>
<path d="M228.391 142.562C230.109 142.562 231.827 142.562 233.597 142.562C233.995 144.287 234.34 146.024 234.638 147.769C233.597 148.81 233.597 148.81 230.929 148.875C229.672 148.843 229.672 148.843 228.391 148.81C228.391 146.748 228.391 144.687 228.391 142.562Z" fill="#E9E4C6"/>
<path d="M246.099 329.992C247.843 330.29 249.581 330.636 251.305 331.033C251.305 332.752 251.305 334.47 251.305 336.24C249.587 336.24 247.869 336.24 246.099 336.24C245.701 334.515 245.355 332.778 245.058 331.033C245.401 330.69 245.745 330.346 246.099 329.992Z" fill="#EAE6CD"/>
<path d="M229.434 193.586C231.179 193.884 232.916 194.229 234.641 194.627C234.297 196.345 233.953 198.063 233.599 199.834C231.881 199.834 230.163 199.834 228.393 199.834C228.348 198.099 228.351 196.362 228.393 194.627C228.737 194.284 229.08 193.94 229.434 193.586Z" fill="#E9E4C6"/>
<path d="M228.396 176.924C230.114 176.924 231.832 176.924 233.603 176.924C233.946 178.642 234.29 180.36 234.644 182.13C232.919 182.528 231.182 182.874 229.437 183.172C228.396 182.13 228.396 182.13 228.331 179.462C228.353 178.624 228.374 177.787 228.396 176.924Z" fill="#E9E4C6"/>
<path d="M229.434 159.223C231.582 159.678 231.582 159.678 233.599 160.264C233.943 161.638 234.287 163.013 234.641 164.429C232.688 165.535 232.688 165.535 230.475 166.512C229.788 166.168 229.101 165.824 228.393 165.47C228.348 163.735 228.351 161.999 228.393 160.264C228.737 159.92 229.08 159.577 229.434 159.223Z" fill="#E9E4C6"/>
<path d="M246.099 313.332C247.817 313.676 249.535 314.019 251.305 314.373C250.962 316.091 250.618 317.81 250.264 319.58C248.546 319.236 246.828 318.892 245.058 318.538C245.401 316.82 245.745 315.102 246.099 313.332Z" fill="#EAE6CD"/>
<path d="M230.479 210.246C232.691 211.222 232.691 211.222 234.644 212.329C234.3 213.703 233.957 215.078 233.603 216.494C231.585 217.079 231.585 217.079 229.437 217.535C228.396 216.494 228.396 216.494 228.331 213.825C228.353 212.988 228.374 212.15 228.396 211.287C229.083 210.944 229.771 210.6 230.479 210.246Z" fill="#E9E4C6"/>
<path d="M246.099 91.5391C247.817 91.8827 249.535 92.2263 251.305 92.5803C250.962 94.2985 250.618 96.0166 250.264 97.7867C248.546 97.4431 246.828 97.0995 245.058 96.7455C245.401 95.0274 245.745 93.3092 246.099 91.5391Z" fill="#EAE6CD"/>
<path d="M164.549 310.6C165.344 310.815 166.139 311.029 166.957 311.251C166.957 311.938 166.957 312.625 166.957 313.333C162.319 314.88 162.319 314.88 157.586 316.457C158.739 311.846 159.53 309.9 164.549 310.6Z" fill="#E5D9AC"/>
<path d="M230.473 278.973C232.621 279.428 232.621 279.428 234.638 280.014C234.295 281.732 233.951 283.45 233.597 285.22C231.879 285.22 230.161 285.22 228.391 285.22C229.302 280.144 229.302 280.144 230.473 278.973Z" fill="#EAE0C2"/>
<path d="M229.432 227.947C231.176 228.245 232.914 228.591 234.638 228.989C234.295 230.707 233.951 232.425 233.597 234.195C232.223 233.851 230.848 233.508 229.432 233.154C228.846 231.136 228.846 231.136 228.391 228.989C228.734 228.645 229.078 228.301 229.432 227.947Z" fill="#EAE0C2"/>
<path d="M247.14 108.199C249.288 108.655 249.288 108.655 251.305 109.24C250.962 110.959 250.618 112.677 250.264 114.447C248.546 114.103 246.828 113.76 245.058 113.406C245.969 109.371 245.969 109.371 247.14 108.199Z" fill="#EAE6CD"/>
<path d="M247.14 278.973C249.288 279.428 249.288 279.428 251.305 280.014C250.962 281.732 250.618 283.45 250.264 285.22C248.546 284.877 246.828 284.533 245.058 284.179C245.969 280.144 245.969 280.144 247.14 278.973Z" fill="#EAE6CD"/>
<path d="M246.099 296.674C247.817 297.017 249.535 297.361 251.305 297.715C251.305 299.09 251.305 300.464 251.305 301.88C250.274 302.224 249.244 302.567 248.181 302.922C247.151 302.234 246.12 301.547 245.058 300.839C245.401 299.464 245.745 298.09 246.099 296.674Z" fill="#EAE6CD"/>
<path d="M246.099 262.312C247.817 262.656 249.535 263 251.305 263.354C251.305 264.728 251.305 266.103 251.305 267.519C250.274 267.863 249.244 268.206 248.181 268.56C247.151 267.873 246.12 267.186 245.058 266.478C245.401 265.103 245.745 263.729 246.099 262.312Z" fill="#EAE6CD"/>
<path d="M175.289 212.33C179.413 214.392 179.413 214.392 183.619 216.495C183.276 217.182 182.932 217.87 182.578 218.578C180.105 218.708 180.105 218.708 177.372 218.578C176.684 217.891 175.997 217.203 175.289 216.495C175.289 215.121 175.289 213.746 175.289 212.33Z" fill="#E6D7AE"/>
<path d="M247.135 142.562C249.283 143.018 249.283 143.018 251.3 143.604C250.957 145.322 250.613 147.04 250.259 148.81C248.884 148.467 247.51 148.123 246.094 147.769C246.094 143.604 246.094 143.604 247.135 142.562Z" fill="#EAE6CD"/>
<path d="M246.099 125.902C247.817 126.246 249.535 126.59 251.305 126.944C251.305 128.318 251.305 129.693 251.305 131.109C250.274 131.452 249.244 131.796 248.181 132.15C247.151 131.463 246.12 130.776 245.058 130.067C245.401 128.693 245.745 127.318 246.099 125.902Z" fill="#EAE6CD"/>
<path d="M159.674 71.7558C162.993 71.4304 162.993 71.4304 165.921 71.7558C165.921 72.443 165.921 73.1303 165.921 73.8383C160.43 77.194 160.43 77.194 158.632 78.0035C157.945 77.6598 157.258 77.3162 156.55 76.9622C157.721 74.359 157.721 74.359 159.674 71.7558Z" fill="#E5D6A9"/>
<path d="M263.803 40.5176C265.521 40.8612 267.239 41.2048 269.009 41.5589C268.684 43.5763 268.684 43.5763 267.968 45.724C266.937 46.0676 265.906 46.4112 264.844 46.7653C264.157 46.078 263.47 45.3908 262.762 44.6827C263.152 42.47 263.152 42.47 263.803 40.5176Z" fill="#EBE8D2"/>
<path d="M211.732 210.246C214.31 210.762 214.31 210.762 216.939 211.287C217.282 213.005 217.626 214.724 217.98 216.494C215.442 215.713 215.442 215.713 212.774 214.411C211.928 212.198 211.928 212.198 211.732 210.246Z" fill="#E9DCBA"/>
<path d="M246.099 160.264C247.817 160.607 249.535 160.951 251.305 161.305C250.962 162.679 250.618 164.054 250.264 165.47C248.546 165.126 246.828 164.783 245.058 164.429C245.401 163.054 245.745 161.68 246.099 160.264Z" fill="#EAE6CD"/>
<path d="M280.46 40.5176C282.178 40.8612 283.896 41.2048 285.667 41.5589C285.323 42.9333 284.979 44.3078 284.625 45.724C282.907 45.3804 281.189 45.0367 279.419 44.6827C279.763 43.3082 280.106 41.9337 280.46 40.5176Z" fill="#EDEAD8"/>
<path d="M135.723 30.1039C137.392 30.0193 139.063 29.9588 140.734 29.9087C142.129 29.8543 142.129 29.8543 143.553 29.7988C146.136 30.1039 146.136 30.1039 149.26 33.2277C142.043 32.7123 142.043 32.7123 134.682 32.1865C135.025 31.4992 135.369 30.812 135.723 30.1039Z" fill="#A27830"/>
<path d="M265.88 293.549C266.568 293.549 267.255 293.549 267.963 293.549C267.963 295.954 267.963 298.36 267.963 300.838C266.588 301.181 265.214 301.525 263.798 301.879C263.798 300.161 263.798 298.443 263.798 296.673C264.485 296.673 265.172 296.673 265.88 296.673C265.88 295.642 265.88 294.611 265.88 293.549Z" fill="#EFECC2"/>
<path d="M246.099 245.648C247.843 245.946 249.581 246.292 251.305 246.69C250.962 248.064 250.618 249.439 250.264 250.855C248.89 250.855 247.515 250.855 246.099 250.855C245.513 248.837 245.513 248.837 245.058 246.69C245.401 246.346 245.745 246.002 246.099 245.648Z" fill="#EAE6CD"/>
<path d="M246.099 176.924C247.817 177.267 249.535 177.611 251.305 177.965C250.962 179.34 250.618 180.714 250.264 182.13C248.546 181.787 246.828 181.443 245.058 181.089C245.401 179.714 245.745 178.34 246.099 176.924Z" fill="#EAE6CD"/>
<path d="M33.6807 26.9824C35.3988 26.9824 37.1169 26.9824 38.8871 26.9824C39.8561 29.6958 40.0837 30.7747 38.9521 33.4904C38.4045 34.3924 38.4045 34.3924 37.8458 35.3127C37.1585 35.3127 36.4713 35.3127 35.7632 35.3127C35.7632 33.5946 35.7632 31.8764 35.7632 30.1063C35.076 29.7626 34.3887 29.419 33.6807 29.065C33.6807 28.3777 33.6807 27.6905 33.6807 26.9824Z" fill="#EEE495"/>
<path d="M35.7627 358.107C40.917 359.138 40.917 359.138 46.1755 360.19C45.8319 360.877 45.4883 361.564 45.1342 362.273C42.0416 362.273 38.949 362.273 35.7627 362.273C35.7627 360.898 35.7627 359.524 35.7627 358.107Z" fill="#D6A62B"/>
<path d="M263.803 347.697C265.177 347.697 266.552 347.697 267.968 347.697C267.968 349.415 267.968 351.133 267.968 352.904C266.937 353.247 265.906 353.591 264.844 353.945C264.157 353.258 263.47 352.57 262.762 351.862C263.152 349.65 263.152 349.65 263.803 347.697Z" fill="#ECE9D1"/>
<path d="M166.962 264.395C167.612 266.347 167.612 266.347 168.003 268.56C165.92 270.642 165.92 270.642 163.187 270.772C162.371 270.729 161.555 270.686 160.714 270.642C162.011 266.752 163.457 266.282 166.962 264.395Z" fill="#E5D6AA"/>
<path d="M247.14 227.947C248.515 228.635 249.889 229.322 251.305 230.03C250.618 231.404 249.931 232.779 249.223 234.195C247.848 233.508 246.474 232.82 245.058 232.112C245.745 230.738 246.432 229.363 247.14 227.947Z" fill="#EAE6CD"/>
<path d="M246.099 211.287C247.817 211.631 249.535 211.974 251.305 212.328C250.962 213.703 250.618 215.077 250.264 216.494C248.89 216.494 247.515 216.494 246.099 216.494C245.755 215.463 245.412 214.432 245.058 213.37C245.401 212.682 245.745 211.995 246.099 211.287Z" fill="#EAE6CD"/>
<path d="M246.099 194.629C247.817 194.973 249.535 195.316 251.305 195.67C250.962 197.045 250.618 198.419 250.264 199.835C248.247 199.445 248.247 199.445 246.099 198.794C245.755 198.107 245.412 197.42 245.058 196.711C245.401 196.024 245.745 195.337 246.099 194.629Z" fill="#EAE6CD"/>
<path d="M263.803 331.037C265.177 331.037 266.552 331.037 267.968 331.037C267.624 332.755 267.281 334.473 266.927 336.244C265.552 335.9 264.178 335.556 262.762 335.202C263.105 333.828 263.449 332.453 263.803 331.037Z" fill="#EDEAD0"/>
<path d="M217.985 78.0036C217.985 79.0345 217.985 80.0653 217.985 81.1274C213.039 82.2989 213.039 82.2989 210.696 81.1274C210.696 80.4402 210.696 79.7529 210.696 79.0449C213.261 77.7626 215.152 77.929 217.985 78.0036Z" fill="#E9D9B8"/>
<path d="M264.844 313.332C265.875 313.676 266.906 314.019 267.968 314.373C267.968 315.748 267.968 317.122 267.968 318.538C266.937 318.882 265.906 319.226 264.844 319.58C264.157 318.205 263.47 316.831 262.762 315.415C263.449 314.727 264.136 314.04 264.844 313.332Z" fill="#ECE9D1"/>
<path d="M201.318 247.734C200.975 249.109 200.631 250.483 200.277 251.899C198.215 251.899 196.154 251.899 194.029 251.899C194.029 251.212 194.029 250.525 194.029 249.817C198.975 247.734 198.975 247.734 201.318 247.734Z" fill="#E8D5B0"/>
<path d="M281.496 347.697C282.527 348.041 283.558 348.385 284.62 348.739C284.62 350.113 284.62 351.488 284.62 352.904C283.246 352.904 281.871 352.904 280.455 352.904C280.799 351.186 281.142 349.467 281.496 347.697Z" fill="#EDEAD8"/>
<path d="M280.455 331.037C281.83 331.037 283.204 331.037 284.62 331.037C284.277 332.755 283.933 334.473 283.579 336.244C282.548 335.9 281.517 335.556 280.455 335.202C280.455 333.828 280.455 332.453 280.455 331.037Z" fill="#EDEAD8"/>
<path d="M280.455 314.377C281.83 314.377 283.204 314.377 284.62 314.377C284.62 315.751 284.62 317.126 284.62 318.542C283.246 318.542 281.871 318.542 280.455 318.542C280.455 317.168 280.455 315.793 280.455 314.377Z" fill="#EDEAD8"/>
<path d="M281.496 296.674C282.527 297.017 283.558 297.361 284.62 297.715C284.277 299.09 283.933 300.464 283.579 301.88C282.548 301.537 281.517 301.193 280.455 300.839C280.799 299.464 281.142 298.09 281.496 296.674Z" fill="#EDEAD8"/>
</svg>
